version 1
nodes
  0 "bone_root"  -1
  1 "pos_center"   0
  2 "rot_center"   0
  3 "Hips"   2
  4 "Pelvis"   3
  5 "LeftSkirtA"   4
  6 "LeftSkirtB"   4
  7 "LeftSkirtC"   4
  8 "LeftUpLeg"   4
  9 "LeftLeg"   8
 10 "LeftFoot"   9
 11 "LeftToeBase"  10
 12 "RightSkirtA"   4
 13 "RightSkirtB"   4
 14 "RightSkirtC"   4
 15 "RightUpLeg"   4
 16 "RightLeg"  15
 17 "RightFoot"  16
 18 "RightToeBase"  17
 19 "Spine"   3
 20 "Spine1"  19
 21 "Head"  20
 22 "Hair0"  21
 23 "Hair1"  22
 24 "nose"  21
 25 "LeftShoulder"  20
 26 "LeftArm"  25
 27 "LeftForeArm"  26
 28 "LeftHand"  27
 29 "LeftHandItem"  28
 30 "LeftHandMiddle1"  28
 31 "LeftHandMiddle2"  30
 32 "LeftHandMiddle3"  31
 33 "LeftHandThumb1"  28
 34 "LeftHandThumb2"  33
 35 "LeftHandThumb3"  34
 36 "RightShoulder"  20
 37 "RightArm"  36
 38 "RightForeArm"  37
 39 "RightHand"  38
 40 "RightHandItem"  39
 41 "RightHandMiddle1"  39
 42 "RightHandMiddle2"  41
 43 "RightHandMiddle3"  42
 44 "RightHandThumb1"  39
 45 "RightHandThumb2"  44
 46 "RightHandThumb3"  45
 47 "Pianta_Eye_Close01"  -1
end
skeleton
time 0
  0 0.000000 0.000000 0.000000 1.570796 -0.000000 0.000000
  1 0.000000 0.000000 0.000000 0.000000 -0.000000 0.000000
  2 0.000000 7.970000 0.000000 0.000000 -0.000000 0.000000
  3 0.000000 0.000000 0.000000 -1.570796 0.000000 0.000000
  4 0.000000 0.000000 0.000000 3.141592 -0.000000 0.000000
  5 2.980000 5.159999 -2.449999 0.349066 -0.000000 2.617993
  6 5.960000 0.000000 -2.449999 0.349066 0.000000 1.570797
  7 2.980000 -5.159997 -2.449999 0.349066 -0.000000 0.523599
  8 3.370000 0.000000 1.070000 0.000000 -0.000000 0.000000
  9 0.000000 -0.000000 1.979998 0.000000 -0.000000 0.000000
 10 0.000000 0.000000 1.849999 0.000000 -0.000000 0.000000
 11 0.000000 2.899998 2.399998 -1.570796 0.000000 0.000000
 12 -2.980000 5.159999 -2.449999 0.349066 0.000000 -2.617994
 13 -5.960000 0.000000 -2.449999 0.349066 -0.000000 -1.570797
 14 -2.980000 -5.159997 -2.449999 0.349066 -0.000000 -0.523599
 15 -3.370000 0.000000 1.070000 0.000000 -0.000000 0.000000
 16 0.000000 -0.000000 1.979998 0.000000 -0.000000 0.000000
 17 0.000000 0.000000 1.849999 0.000000 -0.000000 0.000000
 18 0.000000 2.899998 2.399998 -1.570796 0.000000 0.000000
 19 0.000000 0.000000 0.000000 0.000000 -0.000000 0.000000
 20 0.000000 0.000000 4.209999 0.000000 -0.000000 0.000000
 21 0.000000 0.000000 4.279997 0.000000 -0.000000 0.000000
 22 0.000000 0.000000 3.699997 0.000000 -0.000000 0.000000
 23 0.000000 0.000002 4.399996 0.000000 -0.000000 0.000000
 24 0.000000 -3.359999 1.000000 1.658063 -0.000000 0.000000
 25 1.400000 0.000000 3.599998 -0.000000 1.570451 0.000000
 26 -0.000002 0.000000 2.840000 0.000000 -0.000000 0.000000
 27 0.000001 0.000001 3.300001 0.000000 -0.000000 0.000000
 28 -0.000001 0.000000 4.130000 0.000000 -0.000000 1.570796
 29 0.000001 -0.899999 3.399999 0.000000 -0.000000 0.000000
 30 0.000000 0.549995 3.200001 0.000000 -0.000000 0.000000
 31 -0.000000 0.000000 1.080000 0.000000 -0.000000 0.000000
 32 -0.000001 0.000004 1.079992 0.000000 -0.000000 0.000000
 33 -0.999999 -0.699998 0.599999 -0.628319 -0.610865 1.570797
 34 0.000002 0.000002 2.079999 0.000000 -0.000000 0.000000
 35 0.000004 -0.000000 1.079998 0.000000 -0.000000 0.000000
 36 -1.400000 0.000000 3.599998 0.000000 -1.571142 0.000000
 37 0.000003 0.000000 2.840000 0.000000 -0.000000 0.000000
 38 -0.000001 0.000000 3.299999 0.000000 -0.000000 0.000000
 39 -0.000004 0.000000 4.129998 0.000000 0.000000 -1.570796
 40 0.000000 -0.899997 3.400001 0.000000 -0.000000 0.000000
 41 -0.000000 0.550001 3.200000 0.000000 -0.000000 0.000000
 42 -0.000001 0.000002 1.079999 0.000000 -0.000000 0.000000
 43 -0.000000 -0.000002 1.080001 0.000000 -0.000000 0.000000
 44 0.999998 -0.699993 0.599999 -0.628319 0.610865 -1.570796
 45 0.000000 -0.000003 2.079998 0.000000 -0.000000 0.000000
 46 0.000000 -0.000002 1.080001 -0.000000 0.000000 -0.000000
 47 0.000000 0.000000 0.000000 0.000000 -0.000000 0.000000
end
triangles
mnt_body.png
 47 2.250000 -2.154294 17.973667 0.508660 -0.584957 0.631736 0.176562 0.846540 1 21 1.000000
 47 2.029297 -2.201169 18.090855 0.443748 -0.555168 0.703474 0.171786 0.856054 1 21 1.000000
 47 1.862305 -2.531247 17.936558 0.438257 -0.720017 0.538058 0.165316 0.833471 1 21 1.000000
mnt_body.png
 47 2.029297 -2.201169 18.090855 0.443748 -0.555168 0.703474 0.171786 0.856054 1 21 1.000000
 47 1.755859 -2.320309 18.155308 0.379343 -0.567060 0.731124 0.165278 0.859503 1 21 1.000000
 47 1.862305 -2.531247 17.936558 0.438257 -0.720017 0.538058 0.165316 0.833471 1 21 1.000000
mnt_body.png
 47 1.755859 -2.320309 18.155308 0.379343 -0.567060 0.731124 0.165278 0.859503 1 21 1.000000
 47 1.500000 -2.480465 18.149448 0.330947 -0.620790 0.710700 0.158770 0.855978 1 21 1.000000
 47 1.862305 -2.531247 17.936558 0.438257 -0.720017 0.538058 0.165316 0.833471 1 21 1.000000
mnt_body.png
 47 1.500000 -2.480465 18.149448 0.330947 -0.620790 0.710700 0.158770 0.855978 1 21 1.000000
 47 1.332031 -2.638669 18.075230 0.309047 -0.700253 0.643534 0.154025 0.846426 1 21 1.000000
 47 1.862305 -2.531247 17.936558 0.438257 -0.720017 0.538058 0.165316 0.833471 1 21 1.000000
mnt_body.png
 47 1.332031 -2.638669 18.075230 0.309047 -0.700253 0.643534 0.154025 0.846426 1 21 1.000000
 47 1.296875 -2.751950 17.952183 0.318999 -0.778883 0.539982 0.152300 0.833394 1 21 1.000000
 47 1.862305 -2.531247 17.936558 0.438257 -0.720017 0.538058 0.165316 0.833471 1 21 1.000000
mnt_body.png
 47 1.296875 -2.751950 17.952183 0.318999 -0.778883 0.539982 0.152300 0.833394 1 21 1.000000
 47 1.403320 -2.791012 17.812534 0.354052 -0.831342 0.428391 0.154063 0.820394 1 21 1.000000
 47 1.862305 -2.531247 17.936558 0.438257 -0.720017 0.538058 0.165316 0.833471 1 21 1.000000
mnt_body.png
 47 1.403320 -2.791012 17.812534 0.354052 -0.831342 0.428391 0.154063 0.820394 1 21 1.000000
 47 1.624023 -2.744137 17.695347 0.408880 -0.845155 0.344280 0.158839 0.810887 1 21 1.000000
 47 1.862305 -2.531247 17.936558 0.438257 -0.720017 0.538058 0.165316 0.833471 1 21 1.000000
mnt_body.png
 47 1.624023 -2.744137 17.695347 0.408880 -0.845155 0.344280 0.158839 0.810887 1 21 1.000000
 47 1.899414 -2.624997 17.630894 0.469802 -0.826070 0.311278 0.165347 0.807439 1 21 1.000000
 47 1.862305 -2.531247 17.936558 0.438257 -0.720017 0.538058 0.165316 0.833471 1 21 1.000000
mnt_body.png
 47 1.899414 -2.624997 17.630894 0.469802 -0.826070 0.311278 0.165347 0.807439 1 21 1.000000
 47 2.154297 -2.464840 17.636753 0.522422 -0.782679 0.338363 0.171847 0.810956 1 21 1.000000
 47 1.862305 -2.531247 17.936558 0.438257 -0.720017 0.538058 0.165316 0.833471 1 21 1.000000
mnt_body.png
 47 2.154297 -2.464840 17.636753 0.522422 -0.782679 0.338363 0.171847 0.810956 1 21 1.000000
 47 2.322266 -2.306638 17.710972 0.554394 -0.718950 0.419235 0.176600 0.820508 1 21 1.000000
 47 1.862305 -2.531247 17.936558 0.438257 -0.720017 0.538058 0.165316 0.833471 1 21 1.000000
mnt_body.png
 47 2.322266 -2.306638 17.710972 0.554394 -0.718950 0.419235 0.176600 0.820508 1 21 1.000000
 47 2.357422 -2.193356 17.834995 0.550171 -0.648065 0.526615 0.178332 0.833532 1 21 1.000000
 47 1.862305 -2.531247 17.936558 0.438257 -0.720017 0.538058 0.165316 0.833471 1 21 1.000000
mnt_body.png
 47 2.357422 -2.193356 17.834995 0.550171 -0.648065 0.526615 0.178332 0.833532 1 21 1.000000
 47 2.250000 -2.154294 17.973667 0.508660 -0.584957 0.631736 0.176562 0.846540 1 21 1.000000
 47 1.862305 -2.531247 17.936558 0.438257 -0.720017 0.538058 0.165316 0.833471 1 21 1.000000
mnt_body.png
 47 -2.250000 -2.154294 17.973667 -0.508660 -0.584957 0.631736 0.176562 0.846540 1 21 1.000000
 47 -1.862305 -2.531247 17.936558 -0.438257 -0.720017 0.538058 0.165316 0.833471 1 21 1.000000
 47 -2.029297 -2.201169 18.090855 -0.443748 -0.555168 0.703474 0.171786 0.856054 1 21 1.000000
mnt_body.png
 47 -2.029297 -2.201169 18.090855 -0.443748 -0.555168 0.703474 0.171786 0.856054 1 21 1.000000
 47 -1.862305 -2.531247 17.936558 -0.438257 -0.720017 0.538058 0.165316 0.833471 1 21 1.000000
 47 -1.755859 -2.320309 18.155308 -0.379343 -0.567060 0.731124 0.165278 0.859503 1 21 1.000000
mnt_body.png
 47 -1.755859 -2.320309 18.155308 -0.379343 -0.567060 0.731124 0.165278 0.859503 1 21 1.000000
 47 -1.862305 -2.531247 17.936558 -0.438257 -0.720017 0.538058 0.165316 0.833471 1 21 1.000000
 47 -1.500000 -2.480465 18.149448 -0.330947 -0.620790 0.710700 0.158770 0.855978 1 21 1.000000
mnt_body.png
 47 -1.500000 -2.480465 18.149448 -0.330947 -0.620790 0.710700 0.158770 0.855978 1 21 1.000000
 47 -1.862305 -2.531247 17.936558 -0.438257 -0.720017 0.538058 0.165316 0.833471 1 21 1.000000
 47 -1.332031 -2.638669 18.075230 -0.309047 -0.700253 0.643534 0.154025 0.846426 1 21 1.000000
mnt_body.png
 47 -1.332031 -2.638669 18.075230 -0.309047 -0.700253 0.643534 0.154025 0.846426 1 21 1.000000
 47 -1.862305 -2.531247 17.936558 -0.438257 -0.720017 0.538058 0.165316 0.833471 1 21 1.000000
 47 -1.296875 -2.751950 17.952183 -0.318999 -0.778883 0.539982 0.152300 0.833394 1 21 1.000000
mnt_body.png
 47 -1.296875 -2.751950 17.952183 -0.318999 -0.778883 0.539982 0.152300 0.833394 1 21 1.000000
 47 -1.862305 -2.531247 17.936558 -0.438257 -0.720017 0.538058 0.165316 0.833471 1 21 1.000000
 47 -1.403320 -2.791012 17.812534 -0.354052 -0.831342 0.428391 0.154063 0.820394 1 21 1.000000
mnt_body.png
 47 -1.403320 -2.791012 17.812534 -0.354052 -0.831342 0.428391 0.154063 0.820394 1 21 1.000000
 47 -1.862305 -2.531247 17.936558 -0.438257 -0.720017 0.538058 0.165316 0.833471 1 21 1.000000
 47 -1.624023 -2.744137 17.695347 -0.408880 -0.845155 0.344280 0.158839 0.810887 1 21 1.000000
mnt_body.png
 47 -1.624023 -2.744137 17.695347 -0.408880 -0.845155 0.344280 0.158839 0.810887 1 21 1.000000
 47 -1.862305 -2.531247 17.936558 -0.438257 -0.720017 0.538058 0.165316 0.833471 1 21 1.000000
 47 -1.899414 -2.624997 17.630894 -0.469802 -0.826070 0.311278 0.165347 0.807439 1 21 1.000000
mnt_body.png
 47 -1.899414 -2.624997 17.630894 -0.469802 -0.826070 0.311278 0.165347 0.807439 1 21 1.000000
 47 -1.862305 -2.531247 17.936558 -0.438257 -0.720017 0.538058 0.165316 0.833471 1 21 1.000000
 47 -2.154297 -2.464840 17.636753 -0.522422 -0.782679 0.338363 0.171847 0.810956 1 21 1.000000
mnt_body.png
 47 -2.154297 -2.464840 17.636753 -0.522422 -0.782679 0.338363 0.171847 0.810956 1 21 1.000000
 47 -1.862305 -2.531247 17.936558 -0.438257 -0.720017 0.538058 0.165316 0.833471 1 21 1.000000
 47 -2.322266 -2.306638 17.710972 -0.554394 -0.718950 0.419235 0.176600 0.820508 1 21 1.000000
mnt_body.png
 47 -2.322266 -2.306638 17.710972 -0.554394 -0.718950 0.419235 0.176600 0.820508 1 21 1.000000
 47 -1.862305 -2.531247 17.936558 -0.438257 -0.720017 0.538058 0.165316 0.833471 1 21 1.000000
 47 -2.357422 -2.193356 17.834995 -0.550171 -0.648065 0.526615 0.178332 0.833532 1 21 1.000000
mnt_body.png
 47 -2.357422 -2.193356 17.834995 -0.550171 -0.648065 0.526615 0.178332 0.833532 1 21 1.000000
 47 -1.862305 -2.531247 17.936558 -0.438257 -0.720017 0.538058 0.165316 0.833471 1 21 1.000000
 47 -2.250000 -2.154294 17.973667 -0.508660 -0.584957 0.631736 0.176562 0.846540 1 21 1.000000
end
