version 1
nodes
  0 "bone_root"  -1
  1 "pos_center"   0
  2 "rot_center"   0
  3 "Hips"   2
  4 "Spine"   3
  5 "Spine1"   4
  6 "Head"   5
  7 "nose"   6
  8 "Hair0"   6
  9 "Hair1"   8
 10 "LeftShoulder"   5
 11 "LeftArm"  10
 12 "LeftForeArm"  11
 13 "LeftHand"  12
 14 "LeftHandItem"  13
 15 "LeftHandThumb1"  13
 16 "LeftHandThumb2"  15
 17 "LeftHandThumb3"  16
 18 "LeftHandMiddle1"  13
 19 "LeftHandMiddle2"  18
 20 "LeftHandMiddle3"  19
 21 "RightShoulder"   5
 22 "RightArm"  21
 23 "RightForeArm"  22
 24 "RightHand"  23
 25 "RightHandItem"  24
 26 "RightHandThumb1"  24
 27 "RightHandThumb2"  26
 28 "RightHandThumb3"  27
 29 "RightHandMiddle1"  24
 30 "RightHandMiddle2"  29
 31 "RightHandMiddle3"  30
 32 "Pelvis"   3
 33 "LeftUpLeg"  32
 34 "LeftLeg"  33
 35 "LeftFoot"  34
 36 "LeftToeBase"  35
 37 "RightUpLeg"  32
 38 "RightLeg"  37
 39 "RightFoot"  38
 40 "RightToeBase"  39
 41 "LeftSkirtA"  32
 42 "LeftSkirtB"  32
 43 "LeftSkirtC"  32
 44 "RightSkirtA"  32
 45 "RightSkirtB"  32
 46 "RightSkirtC"  32
 47 "Pianta_Eye"  -1
end
skeleton
time 0
  0 0.000000 0.000000 0.000000 1.570796 -0.000000 0.000000
  1 0.000000 0.000000 0.000000 0.000000 -0.000000 0.000000
  2 0.000000 7.970000 0.000000 0.000000 -0.000000 0.000000
  3 0.000000 0.000000 0.000000 -1.570701 0.000000 0.000000
  4 0.000000 0.000000 0.000000 0.000000 -0.000000 0.000000
  5 0.000000 -0.000000 4.210001 0.000000 -0.000000 0.000000
  6 0.000000 -0.000000 4.280003 0.000000 -0.000000 0.000000
  7 0.000000 -3.360000 1.000000 1.658042 -0.000000 0.000000
  8 0.000000 0.000000 3.700001 0.000000 -0.000000 0.000000
  9 0.000000 0.000000 4.399998 0.000000 -0.000000 0.000000
 10 1.400000 -0.000000 3.600002 -0.000000 1.570451 0.000000
 11 0.000002 -0.000001 2.839999 0.000000 -0.000000 0.000000
 12 0.000000 -0.000001 3.300000 0.000000 -0.000000 0.000000
 13 -0.000002 -0.000001 4.130001 0.000000 -0.000000 1.570701
 14 0.000000 -0.900003 3.399998 0.000000 -0.000000 0.000000
 15 -1.000000 -0.699997 0.600000 -0.628261 -0.610812 1.570701
 16 0.000000 -0.000001 2.080001 0.000000 -0.000000 -0.000000
 17 0.000000 0.000001 1.079998 -0.000000 0.000000 0.000000
 18 0.000000 0.549997 3.200000 0.000000 -0.000000 0.000000
 19 -0.000000 0.000000 1.080004 0.000000 -0.000000 0.000000
 20 0.000000 0.000000 1.079993 0.000000 -0.000000 0.000000
 21 -1.400000 -0.000000 3.600002 0.000000 -1.570451 0.000000
 22 -0.000003 -0.000001 2.839999 0.000000 -0.000000 0.000000
 23 0.000002 -0.000001 3.300001 0.000000 -0.000000 0.000000
 24 0.000000 -0.000001 4.130000 0.000000 -0.000000 -1.570701
 25 -0.000000 -0.900002 3.400001 0.000000 -0.000000 0.000000
 26 1.000000 -0.699999 0.600001 -0.628261 0.610812 -1.570701
 27 0.000004 -0.000001 2.080000 0.000000 0.000000 0.000000
 28 -0.000002 -0.000001 1.079999 0.000000 -0.000000 -0.000000
 29 0.000000 0.550000 3.200002 0.000000 -0.000000 0.000000
 30 0.000000 -0.000006 1.079999 0.000000 -0.000000 0.000000
 31 0.000000 0.000000 1.079994 0.000000 -0.000000 0.000000
 32 0.000000 0.000000 0.000000 3.141497 -0.000000 0.000000
 33 3.370000 0.000000 1.070000 0.000000 -0.000000 0.000000
 34 0.000000 0.000000 1.980000 0.000000 -0.000000 0.000000
 35 0.000000 0.000000 1.849999 0.000000 -0.000000 0.000000
 36 0.000000 2.900000 2.400000 -1.570701 0.000000 0.000000
 37 -3.370000 0.000000 1.070000 0.000000 -0.000000 0.000000
 38 0.000000 0.000000 1.980000 0.000000 -0.000000 0.000000
 39 0.000000 0.000000 1.849999 0.000000 -0.000000 0.000000
 40 0.000000 2.900000 2.400000 -1.570701 0.000000 0.000000
 41 2.980001 5.160001 -2.450003 0.348981 -0.000000 2.617930
 42 5.960000 0.000000 -2.449999 0.348787 0.000078 1.570741
 43 2.980000 -5.159997 -2.449998 0.348981 -0.000000 0.523567
 44 -2.980001 5.160001 -2.450003 0.348981 0.000000 -2.617930
 45 -5.960000 0.000000 -2.449999 0.348787 -0.000078 -1.570741
 46 -2.980000 -5.159997 -2.449998 0.348981 -0.000000 -0.523567
 47 0.000000 0.000000 0.000000 0.000000 -0.000000 0.000000
end
triangles
mnt_body_m.png
 47 1.953133 -2.071699 18.339275 0.481995 -0.349756 0.803338 0.171753 0.856079 1 6 1.000000
 47 2.142012 -2.228577 18.123201 0.645730 -0.406963 0.646076 0.173706 0.843262 1 6 1.000000
 47 2.204912 -2.061808 18.146587 0.666629 -0.344149 0.661186 0.176514 0.846558 1 6 1.000000
mnt_body_m.png
 47 2.142012 -2.228577 18.123201 0.645730 -0.406963 0.646076 0.173706 0.843262 1 6 1.000000
 47 2.255059 -2.303866 17.927881 0.737878 -0.464743 0.489438 0.175049 0.833496 1 6 1.000000
 47 2.204912 -2.061808 18.146587 0.666629 -0.344149 0.661186 0.176514 0.846558 1 6 1.000000
mnt_body_m.png
 47 2.204912 -2.061808 18.146587 0.666629 -0.344149 0.661186 0.176514 0.846558 1 6 1.000000
 47 2.255059 -2.303866 17.927881 0.737878 -0.464743 0.489438 0.175049 0.833496 1 6 1.000000
 47 2.355641 -2.162193 17.886160 0.779351 -0.415074 0.469389 0.178345 0.833496 1 6 1.000000
mnt_body_m.png
 47 2.255059 -2.303866 17.927881 0.737878 -0.464743 0.489438 0.175049 0.833496 1 6 1.000000
 47 2.262028 -2.441690 17.734095 0.748652 -0.587511 0.307164 0.173828 0.823730 1 6 1.000000
 47 2.355641 -2.162193 17.886160 0.779351 -0.415074 0.469389 0.178345 0.833496 1 6 1.000000
mnt_body_m.png
 47 2.355641 -2.162193 17.886160 0.779351 -0.415074 0.469389 0.178345 0.833496 1 6 1.000000
 47 2.262028 -2.441690 17.734095 0.748652 -0.587511 0.307164 0.173828 0.823730 1 6 1.000000
 47 2.364932 -2.345958 17.627775 0.791315 -0.546802 0.273548 0.176636 0.820557 1 6 1.000000
mnt_body_m.png
 47 2.262028 -2.441690 17.734095 0.748652 -0.587511 0.307164 0.173828 0.823730 1 6 1.000000
 47 2.161051 -2.605118 17.593760 0.668814 -0.719512 0.187057 0.170166 0.816528 1 6 1.000000
 47 2.364932 -2.345958 17.627775 0.791315 -0.546802 0.273548 0.176636 0.820557 1 6 1.000000
mnt_body_m.png
 47 2.364932 -2.345958 17.627775 0.791315 -0.546802 0.273548 0.176636 0.820557 1 6 1.000000
 47 2.161051 -2.605118 17.593760 0.668814 -0.719512 0.187057 0.170166 0.816528 1 6 1.000000
 47 2.230297 -2.563864 17.440664 0.694829 -0.708517 0.123352 0.171875 0.810913 1 6 1.000000
mnt_body_m.png
 47 2.161051 -2.605118 17.593760 0.668814 -0.719512 0.187057 0.170166 0.816528 1 6 1.000000
 47 1.979186 -2.750361 17.544489 0.496586 -0.857639 0.133631 0.165283 0.813965 1 6 1.000000
 47 2.230297 -2.563864 17.440664 0.694829 -0.708517 0.123352 0.171875 0.810913 1 6 1.000000
mnt_body_m.png
 47 2.230297 -2.563864 17.440664 0.694829 -0.708517 0.123352 0.171875 0.810913 1 6 1.000000
 47 1.979186 -2.750361 17.544489 0.496586 -0.857639 0.133631 0.165283 0.813965 1 6 1.000000
 47 1.987809 -2.757520 17.374968 0.509466 -0.858243 0.062160 0.165405 0.807495 1 6 1.000000
mnt_body_m.png
 47 1.979186 -2.750361 17.544489 0.496586 -0.857639 0.133631 0.165283 0.813965 1 6 1.000000
 47 1.765162 -2.838500 17.599478 0.315991 -0.932146 0.176786 0.160400 0.816528 1 6 1.000000
 47 1.987809 -2.757520 17.374968 0.509466 -0.858243 0.062160 0.165405 0.807495 1 6 1.000000
mnt_body_m.png
 47 1.987809 -2.757520 17.374968 0.509466 -0.858243 0.062160 0.165405 0.807495 1 6 1.000000
 47 1.765162 -2.838500 17.599478 0.315991 -0.932146 0.176786 0.160400 0.816528 1 6 1.000000
 47 1.702445 -2.875039 17.448286 0.283120 -0.952436 0.112735 0.158813 0.810913 1 6 1.000000
mnt_body_m.png
 47 1.765162 -2.838500 17.599478 0.315991 -0.932146 0.176786 0.160400 0.816528 1 6 1.000000
 47 1.576328 -2.845919 17.743994 0.134131 -0.938871 0.317064 0.156860 0.823608 1 6 1.000000
 47 1.702445 -2.875039 17.448286 0.283120 -0.952436 0.112735 0.158813 0.810913 1 6 1.000000
mnt_body_m.png
 47 1.702445 -2.875039 17.448286 0.283120 -0.952436 0.112735 0.158813 0.810913 1 6 1.000000
 47 1.576328 -2.845919 17.743994 0.134131 -0.938871 0.317064 0.156860 0.823608 1 6 1.000000
 47 1.450665 -2.884930 17.640974 0.081419 -0.960925 0.264565 0.154053 0.820435 1 6 1.000000
mnt_body_m.png
 47 1.576328 -2.845919 17.743994 0.134131 -0.938871 0.317064 0.156860 0.823608 1 6 1.000000
 47 1.463281 -2.770629 17.939314 0.042010 -0.874866 0.482540 0.155518 0.833374 1 6 1.000000
 47 1.450665 -2.884930 17.640974 0.081419 -0.960925 0.264565 0.154053 0.820435 1 6 1.000000
mnt_body_m.png
 47 1.450665 -2.884930 17.640974 0.081419 -0.960925 0.264565 0.154053 0.820435 1 6 1.000000
 47 1.463281 -2.770629 17.939314 0.042010 -0.874866 0.482540 0.155518 0.833374 1 6 1.000000
 47 1.299936 -2.784544 17.901402 -0.034855 -0.880241 0.473244 0.152344 0.833374 1 6 1.000000
mnt_body_m.png
 47 1.463281 -2.770629 17.939314 0.042010 -0.874866 0.482540 0.155518 0.833374 1 6 1.000000
 47 1.456312 -2.632806 18.133104 0.042744 -0.744327 0.666446 0.156860 0.843140 1 6 1.000000
 47 1.299936 -2.784544 17.901402 -0.034855 -0.880241 0.473244 0.152344 0.833374 1 6 1.000000
mnt_body_m.png
 47 1.299936 -2.784544 17.901402 -0.034855 -0.880241 0.473244 0.152344 0.833374 1 6 1.000000
 47 1.456312 -2.632806 18.133104 0.042744 -0.744327 0.666446 0.156860 0.843140 1 6 1.000000
 47 1.290645 -2.600779 18.159788 -0.033337 -0.735895 0.676274 0.154053 0.846436 1 6 1.000000
mnt_body_m.png
 47 1.456312 -2.632806 18.133104 0.042744 -0.744327 0.666446 0.156860 0.843140 1 6 1.000000
 47 1.557289 -2.469377 18.273436 0.131174 -0.612111 0.779817 0.160400 0.850342 1 6 1.000000
 47 1.290645 -2.600779 18.159788 -0.033337 -0.735895 0.676274 0.154053 0.846436 1 6 1.000000
mnt_body_m.png
 47 1.290645 -2.600779 18.159788 -0.033337 -0.735895 0.676274 0.154053 0.846436 1 6 1.000000
 47 1.557289 -2.469377 18.273436 0.131174 -0.612111 0.779817 0.160400 0.850342 1 6 1.000000
 47 1.425280 -2.382874 18.346897 0.080174 -0.571312 0.816807 0.158813 0.855957 1 6 1.000000
mnt_body_m.png
 47 1.557289 -2.469377 18.273436 0.131174 -0.612111 0.779817 0.160400 0.850342 1 6 1.000000
 47 1.739154 -2.324134 18.322710 0.302047 -0.482504 0.822166 0.165283 0.853027 1 6 1.000000
 47 1.425280 -2.382874 18.346897 0.080174 -0.571312 0.816807 0.158813 0.855957 1 6 1.000000
mnt_body_m.png
 47 1.425280 -2.382874 18.346897 0.080174 -0.571312 0.816807 0.158813 0.855957 1 6 1.000000
 47 1.739154 -2.324134 18.322710 0.302047 -0.482504 0.822166 0.165283 0.853027 1 6 1.000000
 47 1.667768 -2.189218 18.412596 0.269115 -0.431322 0.861126 0.165283 0.859497 1 6 1.000000
mnt_body_m.png
 47 1.739154 -2.324134 18.322710 0.302047 -0.482504 0.822166 0.165283 0.853027 1 6 1.000000
 47 1.953178 -2.235995 18.267717 0.474241 -0.414384 0.776776 0.170166 0.850464 1 6 1.000000
 47 1.667768 -2.189218 18.412596 0.269115 -0.431322 0.861126 0.165283 0.859497 1 6 1.000000
mnt_body_m.png
 47 1.667768 -2.189218 18.412596 0.269115 -0.431322 0.861126 0.165283 0.859497 1 6 1.000000
 47 1.953178 -2.235995 18.267717 0.474241 -0.414384 0.776776 0.170166 0.850464 1 6 1.000000
 47 1.953133 -2.071699 18.339275 0.481995 -0.349756 0.803338 0.171753 0.856079 1 6 1.000000
mnt_body_m.png
 47 1.953133 -2.071699 18.339275 0.481995 -0.349756 0.803338 0.171753 0.856079 1 6 1.000000
 47 1.953178 -2.235995 18.267717 0.474241 -0.414384 0.776776 0.170166 0.850464 1 6 1.000000
 47 2.142012 -2.228577 18.123201 0.645730 -0.406963 0.646076 0.173706 0.843262 1 6 1.000000
mnt_body_m.png
 47 1.953178 -2.235995 18.267717 0.474241 -0.414384 0.776776 0.170166 0.850464 1 6 1.000000
 47 2.010059 -2.380775 18.133350 0.524032 -0.544399 0.654997 0.169800 0.842407 1 6 1.000000
 47 2.142012 -2.228577 18.123201 0.645730 -0.406963 0.646076 0.173706 0.843262 1 6 1.000000
mnt_body_m.png
 47 2.010059 -2.380775 18.133350 0.524032 -0.544399 0.654997 0.169800 0.842407 1 6 1.000000
 47 2.150691 -2.474437 17.890369 0.639580 -0.617089 0.458410 0.171387 0.830200 1 6 1.000000
 47 2.142012 -2.228577 18.123201 0.645730 -0.406963 0.646076 0.173706 0.843262 1 6 1.000000
mnt_body_m.png
 47 2.142012 -2.228577 18.123201 0.645730 -0.406963 0.646076 0.173706 0.843262 1 6 1.000000
 47 2.150691 -2.474437 17.890369 0.639580 -0.617089 0.458410 0.171387 0.830200 1 6 1.000000
 47 2.255059 -2.303866 17.927881 0.737878 -0.464743 0.489438 0.175049 0.833496 1 6 1.000000
mnt_body_m.png
 47 2.255059 -2.303866 17.927881 0.737878 -0.464743 0.489438 0.175049 0.833496 1 6 1.000000
 47 2.150691 -2.474437 17.890369 0.639580 -0.617089 0.458410 0.171387 0.830200 1 6 1.000000
 47 2.262028 -2.441690 17.734095 0.748652 -0.587511 0.307164 0.173828 0.823730 1 6 1.000000
mnt_body_m.png
 47 2.150691 -2.474437 17.890369 0.639580 -0.617089 0.458410 0.171387 0.830200 1 6 1.000000
 47 2.025074 -2.677744 17.715794 0.538211 -0.782761 0.312432 0.166992 0.821289 1 6 1.000000
 47 2.262028 -2.441690 17.734095 0.748652 -0.587511 0.307164 0.173828 0.823730 1 6 1.000000
mnt_body_m.png
 47 2.262028 -2.441690 17.734095 0.748652 -0.587511 0.307164 0.173828 0.823730 1 6 1.000000
 47 2.025074 -2.677744 17.715794 0.538211 -0.782761 0.312432 0.166992 0.821289 1 6 1.000000
 47 2.161051 -2.605118 17.593760 0.668814 -0.719512 0.187057 0.170166 0.816528 1 6 1.000000
mnt_body_m.png
 47 2.161051 -2.605118 17.593760 0.668814 -0.719512 0.187057 0.170166 0.816528 1 6 1.000000
 47 2.025074 -2.677744 17.715794 0.538211 -0.782761 0.312432 0.166992 0.821289 1 6 1.000000
 47 1.979186 -2.750361 17.544489 0.496586 -0.857639 0.133631 0.165283 0.813965 1 6 1.000000
mnt_body_m.png
 47 2.025074 -2.677744 17.715794 0.538211 -0.782761 0.312432 0.166992 0.821289 1 6 1.000000
 47 1.758826 -2.787391 17.784201 0.318420 -0.873055 0.369300 0.160889 0.824585 1 6 1.000000
 47 1.979186 -2.750361 17.544489 0.496586 -0.857639 0.133631 0.165283 0.813965 1 6 1.000000
mnt_body_m.png
 47 1.979186 -2.750361 17.544489 0.496586 -0.857639 0.133631 0.165283 0.813965 1 6 1.000000
 47 1.758826 -2.787391 17.784201 0.318420 -0.873055 0.369300 0.160889 0.824585 1 6 1.000000
 47 1.765162 -2.838500 17.599478 0.315991 -0.932146 0.176786 0.160400 0.816528 1 6 1.000000
mnt_body_m.png
 47 1.765162 -2.838500 17.599478 0.315991 -0.932146 0.176786 0.160400 0.816528 1 6 1.000000
 47 1.758826 -2.787391 17.784201 0.318420 -0.873055 0.369300 0.160889 0.824585 1 6 1.000000
 47 1.576328 -2.845919 17.743994 0.134131 -0.938871 0.317064 0.156860 0.823608 1 6 1.000000
mnt_body_m.png
 47 1.758826 -2.787391 17.784201 0.318420 -0.873055 0.369300 0.160889 0.824585 1 6 1.000000
 47 1.618193 -2.693729 18.027184 0.206839 -0.795419 0.569672 0.159180 0.836670 1 6 1.000000
 47 1.576328 -2.845919 17.743994 0.134131 -0.938871 0.317064 0.156860 0.823608 1 6 1.000000
mnt_body_m.png
 47 1.576328 -2.845919 17.743994 0.134131 -0.938871 0.317064 0.156860 0.823608 1 6 1.000000
 47 1.618193 -2.693729 18.027184 0.206839 -0.795419 0.569672 0.159180 0.836670 1 6 1.000000
 47 1.463281 -2.770629 17.939314 0.042010 -0.874866 0.482540 0.155518 0.833374 1 6 1.000000
mnt_body_m.png
 47 1.463281 -2.770629 17.939314 0.042010 -0.874866 0.482540 0.155518 0.833374 1 6 1.000000
 47 1.618193 -2.693729 18.027184 0.206839 -0.795419 0.569672 0.159180 0.836670 1 6 1.000000
 47 1.456312 -2.632806 18.133104 0.042744 -0.744327 0.666446 0.156860 0.843140 1 6 1.000000
mnt_body_m.png
 47 1.618193 -2.693729 18.027184 0.206839 -0.795419 0.569672 0.159180 0.836670 1 6 1.000000
 47 1.743810 -2.490421 18.201759 0.310864 -0.632585 0.709366 0.163696 0.845581 1 6 1.000000
 47 1.456312 -2.632806 18.133104 0.042744 -0.744327 0.666446 0.156860 0.843140 1 6 1.000000
mnt_body_m.png
 47 1.456312 -2.632806 18.133104 0.042744 -0.744327 0.666446 0.156860 0.843140 1 6 1.000000
 47 1.743810 -2.490421 18.201759 0.310864 -0.632585 0.709366 0.163696 0.845581 1 6 1.000000
 47 1.557289 -2.469377 18.273436 0.131174 -0.612111 0.779817 0.160400 0.850342 1 6 1.000000
mnt_body_m.png
 47 1.557289 -2.469377 18.273436 0.131174 -0.612111 0.779817 0.160400 0.850342 1 6 1.000000
 47 1.743810 -2.490421 18.201759 0.310864 -0.632585 0.709366 0.163696 0.845581 1 6 1.000000
 47 1.739154 -2.324134 18.322710 0.302047 -0.482504 0.822166 0.165283 0.853027 1 6 1.000000
mnt_body_m.png
 47 1.743810 -2.490421 18.201759 0.310864 -0.632585 0.709366 0.163696 0.845581 1 6 1.000000
 47 2.010059 -2.380775 18.133350 0.524032 -0.544399 0.654997 0.169800 0.842407 1 6 1.000000
 47 1.739154 -2.324134 18.322710 0.302047 -0.482504 0.822166 0.165283 0.853027 1 6 1.000000
mnt_body_m.png
 47 1.739154 -2.324134 18.322710 0.302047 -0.482504 0.822166 0.165283 0.853027 1 6 1.000000
 47 2.010059 -2.380775 18.133350 0.524032 -0.544399 0.654997 0.169800 0.842407 1 6 1.000000
 47 1.953178 -2.235995 18.267717 0.474241 -0.414384 0.776776 0.170166 0.850464 1 6 1.000000
mnt_body_m.png
 47 1.743810 -2.490421 18.201759 0.310864 -0.632585 0.709366 0.163696 0.845581 1 6 1.000000
 47 1.906122 -2.607825 17.983587 0.438020 -0.723196 0.533972 0.165283 0.833496 1 6 1.000000
 47 2.010059 -2.380775 18.133350 0.524032 -0.544399 0.654997 0.169800 0.842407 1 6 1.000000
mnt_body_m.png
 47 2.010059 -2.380775 18.133350 0.524032 -0.544399 0.654997 0.169800 0.842407 1 6 1.000000
 47 1.906122 -2.607825 17.983587 0.438020 -0.723196 0.533972 0.165283 0.833496 1 6 1.000000
 47 2.150691 -2.474437 17.890369 0.639580 -0.617089 0.458410 0.171387 0.830200 1 6 1.000000
mnt_body_m.png
 47 2.150691 -2.474437 17.890369 0.639580 -0.617089 0.458410 0.171387 0.830200 1 6 1.000000
 47 1.906122 -2.607825 17.983587 0.438020 -0.723196 0.533972 0.165283 0.833496 1 6 1.000000
 47 2.025074 -2.677744 17.715794 0.538211 -0.782761 0.312432 0.166992 0.821289 1 6 1.000000
mnt_body_m.png
 47 2.025074 -2.677744 17.715794 0.538211 -0.782761 0.312432 0.166992 0.821289 1 6 1.000000
 47 1.906122 -2.607825 17.983587 0.438020 -0.723196 0.533972 0.165283 0.833496 1 6 1.000000
 47 1.758826 -2.787391 17.784201 0.318420 -0.873055 0.369300 0.160889 0.824585 1 6 1.000000
mnt_body_m.png
 47 1.758826 -2.787391 17.784201 0.318420 -0.873055 0.369300 0.160889 0.824585 1 6 1.000000
 47 1.906122 -2.607825 17.983587 0.438020 -0.723196 0.533972 0.165283 0.833496 1 6 1.000000
 47 1.618193 -2.693729 18.027184 0.206839 -0.795419 0.569672 0.159180 0.836670 1 6 1.000000
mnt_body_m.png
 47 1.906122 -2.607825 17.983587 0.438020 -0.723196 0.533972 0.165283 0.833496 1 6 1.000000
 47 1.743810 -2.490421 18.201759 0.310864 -0.632585 0.709366 0.163696 0.845581 1 6 1.000000
 47 1.618193 -2.693729 18.027184 0.206839 -0.795419 0.569672 0.159180 0.836670 1 6 1.000000
mnt_body_m.png
 47 -2.204912 -2.061808 18.146587 -0.666629 -0.344149 0.661186 0.154053 0.846558 1 6 1.000000
 47 -2.142012 -2.228577 18.123201 -0.645730 -0.406963 0.646076 0.156860 0.843262 1 6 1.000000
 47 -1.953133 -2.071699 18.339275 -0.481995 -0.349756 0.803338 0.158813 0.856079 1 6 1.000000
mnt_body_m.png
 47 -2.142012 -2.228577 18.123201 -0.645730 -0.406963 0.646076 0.156860 0.843262 1 6 1.000000
 47 -1.953178 -2.235995 18.267717 -0.474241 -0.414384 0.776776 0.160400 0.850464 1 6 1.000000
 47 -1.953133 -2.071699 18.339275 -0.481995 -0.349756 0.803338 0.158813 0.856079 1 6 1.000000
mnt_body_m.png
 47 -1.953133 -2.071699 18.339275 -0.481995 -0.349756 0.803338 0.158813 0.856079 1 6 1.000000
 47 -1.953178 -2.235995 18.267717 -0.474241 -0.414384 0.776776 0.160400 0.850464 1 6 1.000000
 47 -1.667768 -2.189218 18.412596 -0.269115 -0.431322 0.861126 0.165405 0.859497 1 6 1.000000
mnt_body_m.png
 47 -1.953178 -2.235995 18.267717 -0.474241 -0.414384 0.776776 0.160400 0.850464 1 6 1.000000
 47 -1.739154 -2.324134 18.322710 -0.302047 -0.482504 0.822166 0.165283 0.853027 1 6 1.000000
 47 -1.667768 -2.189218 18.412596 -0.269115 -0.431322 0.861126 0.165405 0.859497 1 6 1.000000
mnt_body_m.png
 47 -1.667768 -2.189218 18.412596 -0.269115 -0.431322 0.861126 0.165405 0.859497 1 6 1.000000
 47 -1.739154 -2.324134 18.322710 -0.302047 -0.482504 0.822166 0.165283 0.853027 1 6 1.000000
 47 -1.425280 -2.382874 18.346897 -0.080174 -0.571312 0.816807 0.171875 0.855957 1 6 1.000000
mnt_body_m.png
 47 -1.739154 -2.324134 18.322710 -0.302047 -0.482504 0.822166 0.165283 0.853027 1 6 1.000000
 47 -1.557289 -2.469377 18.273436 -0.131174 -0.612111 0.779817 0.170166 0.850342 1 6 1.000000
 47 -1.425280 -2.382874 18.346897 -0.080174 -0.571312 0.816807 0.171875 0.855957 1 6 1.000000
mnt_body_m.png
 47 -1.425280 -2.382874 18.346897 -0.080174 -0.571312 0.816807 0.171875 0.855957 1 6 1.000000
 47 -1.557289 -2.469377 18.273436 -0.131174 -0.612111 0.779817 0.170166 0.850342 1 6 1.000000
 47 -1.290645 -2.600779 18.159788 0.033337 -0.735895 0.676274 0.176636 0.846436 1 6 1.000000
mnt_body_m.png
 47 -1.557289 -2.469377 18.273436 -0.131174 -0.612111 0.779817 0.170166 0.850342 1 6 1.000000
 47 -1.456312 -2.632806 18.133104 -0.042744 -0.744327 0.666446 0.173828 0.843140 1 6 1.000000
 47 -1.290645 -2.600779 18.159788 0.033337 -0.735895 0.676274 0.176636 0.846436 1 6 1.000000
mnt_body_m.png
 47 -1.290645 -2.600779 18.159788 0.033337 -0.735895 0.676274 0.176636 0.846436 1 6 1.000000
 47 -1.456312 -2.632806 18.133104 -0.042744 -0.744327 0.666446 0.173828 0.843140 1 6 1.000000
 47 -1.299936 -2.784544 17.901402 0.034855 -0.880241 0.473244 0.178345 0.833374 1 6 1.000000
mnt_body_m.png
 47 -1.456312 -2.632806 18.133104 -0.042744 -0.744327 0.666446 0.173828 0.843140 1 6 1.000000
 47 -1.463281 -2.770629 17.939314 -0.042010 -0.874866 0.482540 0.175049 0.833374 1 6 1.000000
 47 -1.299936 -2.784544 17.901402 0.034855 -0.880241 0.473244 0.178345 0.833374 1 6 1.000000
mnt_body_m.png
 47 -1.299936 -2.784544 17.901402 0.034855 -0.880241 0.473244 0.178345 0.833374 1 6 1.000000
 47 -1.463281 -2.770629 17.939314 -0.042010 -0.874866 0.482540 0.175049 0.833374 1 6 1.000000
 47 -1.450665 -2.884930 17.640974 -0.081419 -0.960925 0.264565 0.176514 0.820435 1 6 1.000000
mnt_body_m.png
 47 -1.463281 -2.770629 17.939314 -0.042010 -0.874866 0.482540 0.175049 0.833374 1 6 1.000000
 47 -1.576328 -2.845919 17.743994 -0.134131 -0.938871 0.317064 0.173706 0.823608 1 6 1.000000
 47 -1.450665 -2.884930 17.640974 -0.081419 -0.960925 0.264565 0.176514 0.820435 1 6 1.000000
mnt_body_m.png
 47 -1.450665 -2.884930 17.640974 -0.081419 -0.960925 0.264565 0.176514 0.820435 1 6 1.000000
 47 -1.576328 -2.845919 17.743994 -0.134131 -0.938871 0.317064 0.173706 0.823608 1 6 1.000000
 47 -1.702445 -2.875039 17.448286 -0.283120 -0.952436 0.112735 0.171753 0.810913 1 6 1.000000
mnt_body_m.png
 47 -1.576328 -2.845919 17.743994 -0.134131 -0.938871 0.317064 0.173706 0.823608 1 6 1.000000
 47 -1.765162 -2.838500 17.599478 -0.315991 -0.932146 0.176786 0.170166 0.816528 1 6 1.000000
 47 -1.702445 -2.875039 17.448286 -0.283120 -0.952436 0.112735 0.171753 0.810913 1 6 1.000000
mnt_body_m.png
 47 -1.702445 -2.875039 17.448286 -0.283120 -0.952436 0.112735 0.171753 0.810913 1 6 1.000000
 47 -1.765162 -2.838500 17.599478 -0.315991 -0.932146 0.176786 0.170166 0.816528 1 6 1.000000
 47 -1.987809 -2.757520 17.374968 -0.509466 -0.858243 0.062160 0.165283 0.807495 1 6 1.000000
mnt_body_m.png
 47 -1.765162 -2.838500 17.599478 -0.315991 -0.932146 0.176786 0.170166 0.816528 1 6 1.000000
 47 -1.979186 -2.750361 17.544489 -0.496586 -0.857639 0.133631 0.165283 0.813965 1 6 1.000000
 47 -1.987809 -2.757520 17.374968 -0.509466 -0.858243 0.062160 0.165283 0.807495 1 6 1.000000
mnt_body_m.png
 47 -1.987809 -2.757520 17.374968 -0.509466 -0.858243 0.062160 0.165283 0.807495 1 6 1.000000
 47 -1.979186 -2.750361 17.544489 -0.496586 -0.857639 0.133631 0.165283 0.813965 1 6 1.000000
 47 -2.230297 -2.563864 17.440664 -0.694829 -0.708517 0.123352 0.158813 0.810913 1 6 1.000000
mnt_body_m.png
 47 -1.979186 -2.750361 17.544489 -0.496586 -0.857639 0.133631 0.165283 0.813965 1 6 1.000000
 47 -2.161051 -2.605118 17.593760 -0.668814 -0.719512 0.187057 0.160400 0.816528 1 6 1.000000
 47 -2.230297 -2.563864 17.440664 -0.694829 -0.708517 0.123352 0.158813 0.810913 1 6 1.000000
mnt_body_m.png
 47 -2.230297 -2.563864 17.440664 -0.694829 -0.708517 0.123352 0.158813 0.810913 1 6 1.000000
 47 -2.161051 -2.605118 17.593760 -0.668814 -0.719512 0.187057 0.160400 0.816528 1 6 1.000000
 47 -2.364932 -2.345958 17.627775 -0.791315 -0.546802 0.273548 0.154053 0.820557 1 6 1.000000
mnt_body_m.png
 47 -2.161051 -2.605118 17.593760 -0.668814 -0.719512 0.187057 0.160400 0.816528 1 6 1.000000
 47 -2.262028 -2.441690 17.734095 -0.748652 -0.587511 0.307164 0.156860 0.823730 1 6 1.000000
 47 -2.364932 -2.345958 17.627775 -0.791315 -0.546802 0.273548 0.154053 0.820557 1 6 1.000000
mnt_body_m.png
 47 -2.364932 -2.345958 17.627775 -0.791315 -0.546802 0.273548 0.154053 0.820557 1 6 1.000000
 47 -2.262028 -2.441690 17.734095 -0.748652 -0.587511 0.307164 0.156860 0.823730 1 6 1.000000
 47 -2.355641 -2.162193 17.886160 -0.779351 -0.415074 0.469389 0.152344 0.833496 1 6 1.000000
mnt_body_m.png
 47 -2.262028 -2.441690 17.734095 -0.748652 -0.587511 0.307164 0.156860 0.823730 1 6 1.000000
 47 -2.255059 -2.303866 17.927881 -0.737878 -0.464743 0.489438 0.155518 0.833496 1 6 1.000000
 47 -2.355641 -2.162193 17.886160 -0.779351 -0.415074 0.469389 0.152344 0.833496 1 6 1.000000
mnt_body_m.png
 47 -2.355641 -2.162193 17.886160 -0.779351 -0.415074 0.469389 0.152344 0.833496 1 6 1.000000
 47 -2.255059 -2.303866 17.927881 -0.737878 -0.464743 0.489438 0.155518 0.833496 1 6 1.000000
 47 -2.204912 -2.061808 18.146587 -0.666629 -0.344149 0.661186 0.154053 0.846558 1 6 1.000000
mnt_body_m.png
 47 -2.204912 -2.061808 18.146587 -0.666629 -0.344149 0.661186 0.154053 0.846558 1 6 1.000000
 47 -2.255059 -2.303866 17.927881 -0.737878 -0.464743 0.489438 0.155518 0.833496 1 6 1.000000
 47 -2.142012 -2.228577 18.123201 -0.645730 -0.406963 0.646076 0.156860 0.843262 1 6 1.000000
mnt_body_m.png
 47 -2.255059 -2.303866 17.927881 -0.737878 -0.464743 0.489438 0.155518 0.833496 1 6 1.000000
 47 -2.150691 -2.474437 17.890369 -0.639580 -0.617089 0.458409 0.159180 0.830200 1 6 1.000000
 47 -2.142012 -2.228577 18.123201 -0.645730 -0.406963 0.646076 0.156860 0.843262 1 6 1.000000
mnt_body_m.png
 47 -2.150691 -2.474437 17.890369 -0.639580 -0.617089 0.458409 0.159180 0.830200 1 6 1.000000
 47 -2.010059 -2.380775 18.133350 -0.524032 -0.544399 0.654997 0.160889 0.842407 1 6 1.000000
 47 -2.142012 -2.228577 18.123201 -0.645730 -0.406963 0.646076 0.156860 0.843262 1 6 1.000000
mnt_body_m.png
 47 -2.142012 -2.228577 18.123201 -0.645730 -0.406963 0.646076 0.156860 0.843262 1 6 1.000000
 47 -2.010059 -2.380775 18.133350 -0.524032 -0.544399 0.654997 0.160889 0.842407 1 6 1.000000
 47 -1.953178 -2.235995 18.267717 -0.474241 -0.414384 0.776776 0.160400 0.850464 1 6 1.000000
mnt_body_m.png
 47 -1.953178 -2.235995 18.267717 -0.474241 -0.414384 0.776776 0.160400 0.850464 1 6 1.000000
 47 -2.010059 -2.380775 18.133350 -0.524032 -0.544399 0.654997 0.160889 0.842407 1 6 1.000000
 47 -1.739154 -2.324134 18.322710 -0.302047 -0.482504 0.822166 0.165283 0.853027 1 6 1.000000
mnt_body_m.png
 47 -2.010059 -2.380775 18.133350 -0.524032 -0.544399 0.654997 0.160889 0.842407 1 6 1.000000
 47 -1.743810 -2.490421 18.201759 -0.310864 -0.632585 0.709366 0.166992 0.845581 1 6 1.000000
 47 -1.739154 -2.324134 18.322710 -0.302047 -0.482504 0.822166 0.165283 0.853027 1 6 1.000000
mnt_body_m.png
 47 -1.739154 -2.324134 18.322710 -0.302047 -0.482504 0.822166 0.165283 0.853027 1 6 1.000000
 47 -1.743810 -2.490421 18.201759 -0.310864 -0.632585 0.709366 0.166992 0.845581 1 6 1.000000
 47 -1.557289 -2.469377 18.273436 -0.131174 -0.612111 0.779817 0.170166 0.850342 1 6 1.000000
mnt_body_m.png
 47 -1.557289 -2.469377 18.273436 -0.131174 -0.612111 0.779817 0.170166 0.850342 1 6 1.000000
 47 -1.743810 -2.490421 18.201759 -0.310864 -0.632585 0.709366 0.166992 0.845581 1 6 1.000000
 47 -1.456312 -2.632806 18.133104 -0.042744 -0.744327 0.666446 0.173828 0.843140 1 6 1.000000
mnt_body_m.png
 47 -1.743810 -2.490421 18.201759 -0.310864 -0.632585 0.709366 0.166992 0.845581 1 6 1.000000
 47 -1.618193 -2.693729 18.027184 -0.206839 -0.795419 0.569672 0.171387 0.836670 1 6 1.000000
 47 -1.456312 -2.632806 18.133104 -0.042744 -0.744327 0.666446 0.173828 0.843140 1 6 1.000000
mnt_body_m.png
 47 -1.456312 -2.632806 18.133104 -0.042744 -0.744327 0.666446 0.173828 0.843140 1 6 1.000000
 47 -1.618193 -2.693729 18.027184 -0.206839 -0.795419 0.569672 0.171387 0.836670 1 6 1.000000
 47 -1.463281 -2.770629 17.939314 -0.042010 -0.874866 0.482540 0.175049 0.833374 1 6 1.000000
mnt_body_m.png
 47 -1.463281 -2.770629 17.939314 -0.042010 -0.874866 0.482540 0.175049 0.833374 1 6 1.000000
 47 -1.618193 -2.693729 18.027184 -0.206839 -0.795419 0.569672 0.171387 0.836670 1 6 1.000000
 47 -1.576328 -2.845919 17.743994 -0.134131 -0.938871 0.317064 0.173706 0.823608 1 6 1.000000
mnt_body_m.png
 47 -1.618193 -2.693729 18.027184 -0.206839 -0.795419 0.569672 0.171387 0.836670 1 6 1.000000
 47 -1.758826 -2.787391 17.784201 -0.318420 -0.873055 0.369300 0.169800 0.824585 1 6 1.000000
 47 -1.576328 -2.845919 17.743994 -0.134131 -0.938871 0.317064 0.173706 0.823608 1 6 1.000000
mnt_body_m.png
 47 -1.576328 -2.845919 17.743994 -0.134131 -0.938871 0.317064 0.173706 0.823608 1 6 1.000000
 47 -1.758826 -2.787391 17.784201 -0.318420 -0.873055 0.369300 0.169800 0.824585 1 6 1.000000
 47 -1.765162 -2.838500 17.599478 -0.315991 -0.932146 0.176786 0.170166 0.816528 1 6 1.000000
mnt_body_m.png
 47 -1.765162 -2.838500 17.599478 -0.315991 -0.932146 0.176786 0.170166 0.816528 1 6 1.000000
 47 -1.758826 -2.787391 17.784201 -0.318420 -0.873055 0.369300 0.169800 0.824585 1 6 1.000000
 47 -1.979186 -2.750361 17.544489 -0.496586 -0.857639 0.133631 0.165283 0.813965 1 6 1.000000
mnt_body_m.png
 47 -1.758826 -2.787391 17.784201 -0.318420 -0.873055 0.369300 0.169800 0.824585 1 6 1.000000
 47 -2.025074 -2.677744 17.715794 -0.538211 -0.782761 0.312431 0.163696 0.821289 1 6 1.000000
 47 -1.979186 -2.750361 17.544489 -0.496586 -0.857639 0.133631 0.165283 0.813965 1 6 1.000000
mnt_body_m.png
 47 -1.979186 -2.750361 17.544489 -0.496586 -0.857639 0.133631 0.165283 0.813965 1 6 1.000000
 47 -2.025074 -2.677744 17.715794 -0.538211 -0.782761 0.312431 0.163696 0.821289 1 6 1.000000
 47 -2.161051 -2.605118 17.593760 -0.668814 -0.719512 0.187057 0.160400 0.816528 1 6 1.000000
mnt_body_m.png
 47 -2.161051 -2.605118 17.593760 -0.668814 -0.719512 0.187057 0.160400 0.816528 1 6 1.000000
 47 -2.025074 -2.677744 17.715794 -0.538211 -0.782761 0.312431 0.163696 0.821289 1 6 1.000000
 47 -2.262028 -2.441690 17.734095 -0.748652 -0.587511 0.307164 0.156860 0.823730 1 6 1.000000
mnt_body_m.png
 47 -2.025074 -2.677744 17.715794 -0.538211 -0.782761 0.312431 0.163696 0.821289 1 6 1.000000
 47 -2.150691 -2.474437 17.890369 -0.639580 -0.617089 0.458409 0.159180 0.830200 1 6 1.000000
 47 -2.262028 -2.441690 17.734095 -0.748652 -0.587511 0.307164 0.156860 0.823730 1 6 1.000000
mnt_body_m.png
 47 -2.262028 -2.441690 17.734095 -0.748652 -0.587511 0.307164 0.156860 0.823730 1 6 1.000000
 47 -2.150691 -2.474437 17.890369 -0.639580 -0.617089 0.458409 0.159180 0.830200 1 6 1.000000
 47 -2.255059 -2.303866 17.927881 -0.737878 -0.464743 0.489438 0.155518 0.833496 1 6 1.000000
mnt_body_m.png
 47 -2.025074 -2.677744 17.715794 -0.538211 -0.782761 0.312431 0.163696 0.821289 1 6 1.000000
 47 -1.906122 -2.607825 17.983587 -0.438020 -0.723196 0.533972 0.165283 0.833496 1 6 1.000000
 47 -2.150691 -2.474437 17.890369 -0.639580 -0.617089 0.458409 0.159180 0.830200 1 6 1.000000
mnt_body_m.png
 47 -2.150691 -2.474437 17.890369 -0.639580 -0.617089 0.458409 0.159180 0.830200 1 6 1.000000
 47 -1.906122 -2.607825 17.983587 -0.438020 -0.723196 0.533972 0.165283 0.833496 1 6 1.000000
 47 -2.010059 -2.380775 18.133350 -0.524032 -0.544399 0.654997 0.160889 0.842407 1 6 1.000000
mnt_body_m.png
 47 -2.010059 -2.380775 18.133350 -0.524032 -0.544399 0.654997 0.160889 0.842407 1 6 1.000000
 47 -1.906122 -2.607825 17.983587 -0.438020 -0.723196 0.533972 0.165283 0.833496 1 6 1.000000
 47 -1.743810 -2.490421 18.201759 -0.310864 -0.632585 0.709366 0.166992 0.845581 1 6 1.000000
mnt_body_m.png
 47 -1.743810 -2.490421 18.201759 -0.310864 -0.632585 0.709366 0.166992 0.845581 1 6 1.000000
 47 -1.906122 -2.607825 17.983587 -0.438020 -0.723196 0.533972 0.165283 0.833496 1 6 1.000000
 47 -1.618193 -2.693729 18.027184 -0.206839 -0.795419 0.569672 0.171387 0.836670 1 6 1.000000
mnt_body_m.png
 47 -1.618193 -2.693729 18.027184 -0.206839 -0.795419 0.569672 0.171387 0.836670 1 6 1.000000
 47 -1.906122 -2.607825 17.983587 -0.438020 -0.723196 0.533972 0.165283 0.833496 1 6 1.000000
 47 -1.758826 -2.787391 17.784201 -0.318420 -0.873055 0.369300 0.169800 0.824585 1 6 1.000000
mnt_body_m.png
 47 -1.906122 -2.607825 17.983587 -0.438020 -0.723196 0.533972 0.165283 0.833496 1 6 1.000000
 47 -2.025074 -2.677744 17.715794 -0.538211 -0.782761 0.312431 0.163696 0.821289 1 6 1.000000
 47 -1.758826 -2.787391 17.784201 -0.318420 -0.873055 0.369300 0.169800 0.824585 1 6 1.000000
end
