version 1
nodes
  0 "bone_root"  -1
  1 "pos_center"   0
  2 "rot_center"   0
  3 "Hips"   2
  4 "Pelvis"   3
  5 "LeftSkirtA"   4
  6 "LeftSkirtB"   4
  7 "LeftSkirtC"   4
  8 "LeftUpLeg"   4
  9 "LeftLeg"   8
 10 "LeftFoot"   9
 11 "LeftToeBase"  10
 12 "RightSkirtA"   4
 13 "RightSkirtB"   4
 14 "RightSkirtC"   4
 15 "RightUpLeg"   4
 16 "RightLeg"  15
 17 "RightFoot"  16
 18 "RightToeBase"  17
 19 "Spine"   3
 20 "Spine1"  19
 21 "Head"  20
 22 "Hair0"  21
 23 "Hair1"  22
 24 "nose"  21
 25 "LeftShoulder"  20
 26 "LeftArm"  25
 27 "LeftForeArm"  26
 28 "LeftHand"  27
 29 "LeftHandItem"  28
 30 "LeftHandMiddle1"  28
 31 "LeftHandMiddle2"  30
 32 "LeftHandMiddle3"  31
 33 "LeftHandThumb1"  28
 34 "LeftHandThumb2"  33
 35 "LeftHandThumb3"  34
 36 "RightShoulder"  20
 37 "RightArm"  36
 38 "RightForeArm"  37
 39 "RightHand"  38
 40 "RightHandItem"  39
 41 "RightHandMiddle1"  39
 42 "RightHandMiddle2"  41
 43 "RightHandMiddle3"  42
 44 "RightHandThumb1"  39
 45 "RightHandThumb2"  44
 46 "RightHandThumb3"  45
 47 "Pianta_Eye_Close02"  -1
end
skeleton
time 0
  0 0.000000 0.000000 0.000000 1.570796 -0.000000 0.000000
  1 0.000000 0.000000 0.000000 0.000000 -0.000000 0.000000
  2 0.000000 7.970000 0.000000 0.000000 -0.000000 0.000000
  3 0.000000 0.000000 0.000000 -1.570796 0.000000 0.000000
  4 0.000000 0.000000 0.000000 3.141592 -0.000000 0.000000
  5 2.980000 5.159999 -2.449999 0.349066 -0.000000 2.617993
  6 5.960000 0.000000 -2.449999 0.349066 0.000000 1.570797
  7 2.980000 -5.159997 -2.449999 0.349066 -0.000000 0.523599
  8 3.370000 0.000000 1.070000 0.000000 -0.000000 0.000000
  9 0.000000 -0.000000 1.979998 0.000000 -0.000000 0.000000
 10 0.000000 0.000000 1.849999 0.000000 -0.000000 0.000000
 11 0.000000 2.899998 2.399998 -1.570796 0.000000 0.000000
 12 -2.980000 5.159999 -2.449999 0.349066 0.000000 -2.617994
 13 -5.960000 0.000000 -2.449999 0.349066 -0.000000 -1.570797
 14 -2.980000 -5.159997 -2.449999 0.349066 -0.000000 -0.523599
 15 -3.370000 0.000000 1.070000 0.000000 -0.000000 0.000000
 16 0.000000 -0.000000 1.979998 0.000000 -0.000000 0.000000
 17 0.000000 0.000000 1.849999 0.000000 -0.000000 0.000000
 18 0.000000 2.899998 2.399998 -1.570796 0.000000 0.000000
 19 0.000000 0.000000 0.000000 0.000000 -0.000000 0.000000
 20 0.000000 0.000000 4.209999 0.000000 -0.000000 0.000000
 21 0.000000 0.000000 4.279997 0.000000 -0.000000 0.000000
 22 0.000000 0.000000 3.699997 0.000000 -0.000000 0.000000
 23 0.000000 0.000002 4.399996 0.000000 -0.000000 0.000000
 24 0.000000 -3.359999 1.000000 1.658063 -0.000000 0.000000
 25 1.400000 0.000000 3.599998 -0.000000 1.570451 0.000000
 26 -0.000002 0.000000 2.840000 0.000000 -0.000000 0.000000
 27 0.000001 0.000001 3.300001 0.000000 -0.000000 0.000000
 28 -0.000001 0.000000 4.130000 0.000000 -0.000000 1.570796
 29 0.000001 -0.899999 3.399999 0.000000 -0.000000 0.000000
 30 0.000000 0.549995 3.200001 0.000000 -0.000000 0.000000
 31 -0.000000 0.000000 1.080000 0.000000 -0.000000 0.000000
 32 -0.000001 0.000004 1.079992 0.000000 -0.000000 0.000000
 33 -0.999999 -0.699998 0.599999 -0.628319 -0.610865 1.570797
 34 0.000002 0.000002 2.079999 0.000000 -0.000000 0.000000
 35 0.000004 -0.000000 1.079998 0.000000 -0.000000 0.000000
 36 -1.400000 0.000000 3.599998 0.000000 -1.571142 0.000000
 37 0.000003 0.000000 2.840000 0.000000 -0.000000 0.000000
 38 -0.000001 0.000000 3.299999 0.000000 -0.000000 0.000000
 39 -0.000004 0.000000 4.129998 0.000000 0.000000 -1.570796
 40 0.000000 -0.899997 3.400001 0.000000 -0.000000 0.000000
 41 -0.000000 0.550001 3.200000 0.000000 -0.000000 0.000000
 42 -0.000001 0.000002 1.079999 0.000000 -0.000000 0.000000
 43 -0.000000 -0.000002 1.080001 0.000000 -0.000000 0.000000
 44 0.999998 -0.699993 0.599999 -0.628319 0.610865 -1.570796
 45 0.000000 -0.000003 2.079998 0.000000 -0.000000 0.000000
 46 0.000000 -0.000002 1.080001 -0.000000 0.000000 -0.000000
 47 0.000000 0.000000 0.000000 0.000000 -0.000000 0.000000
end
triangles
mnt_body.png
 47 2.265625 -2.177731 17.930698 0.414796 -0.504779 0.757062 0.176562 0.846540 1 21 1.000000
 47 2.076172 -2.277341 17.952183 0.293504 -0.399151 0.868639 0.171786 0.856054 1 21 1.000000
 47 1.877930 -2.554684 17.891636 0.434121 -0.707902 0.557147 0.165316 0.833471 1 21 1.000000
mnt_body.png
 47 2.076172 -2.277341 17.952183 0.293504 -0.399151 0.868639 0.171786 0.856054 1 21 1.000000
 47 1.817383 -2.419919 17.970737 0.270130 -0.393459 0.878761 0.165278 0.859503 1 21 1.000000
 47 1.877930 -2.554684 17.891636 0.434121 -0.707902 0.557147 0.165316 0.833471 1 21 1.000000
mnt_body.png
 47 1.817383 -2.419919 17.970737 0.270130 -0.393459 0.878761 0.165278 0.859503 1 21 1.000000
 47 1.556641 -2.572262 17.979527 0.260073 -0.414573 0.872062 0.158770 0.855978 1 21 1.000000
 47 1.877930 -2.554684 17.891636 0.434121 -0.707902 0.557147 0.165316 0.833471 1 21 1.000000
mnt_body.png
 47 1.556641 -2.572262 17.979527 0.260073 -0.414573 0.872062 0.158770 0.855978 1 21 1.000000
 47 1.364258 -2.691403 17.978550 0.281832 -0.573463 0.769227 0.154025 0.846426 1 21 1.000000
 47 1.877930 -2.554684 17.891636 0.434121 -0.707902 0.557147 0.165316 0.833471 1 21 1.000000
mnt_body.png
 47 1.364258 -2.691403 17.978550 0.281832 -0.573463 0.769227 0.154025 0.846426 1 21 1.000000
 47 1.306641 -2.769528 17.920933 0.319177 -0.781312 0.536356 0.152300 0.833394 1 21 1.000000
 47 1.877930 -2.554684 17.891636 0.434121 -0.707902 0.557147 0.165316 0.833471 1 21 1.000000
mnt_body.png
 47 1.306641 -2.769528 17.920933 0.319177 -0.781312 0.536356 0.152300 0.833394 1 21 1.000000
 47 1.389648 -2.767575 17.855503 0.352414 -0.869310 0.346561 0.154063 0.820394 1 21 1.000000
 47 1.877930 -2.554684 17.891636 0.434121 -0.707902 0.557147 0.165316 0.833471 1 21 1.000000
mnt_body.png
 47 1.389648 -2.767575 17.855503 0.352414 -0.869310 0.346561 0.154063 0.820394 1 21 1.000000
 47 1.598633 -2.701169 17.793003 0.409091 -0.896456 0.170327 0.158839 0.810887 1 21 1.000000
 47 1.877930 -2.554684 17.891636 0.434121 -0.707902 0.557147 0.165316 0.833471 1 21 1.000000
mnt_body.png
 47 1.598633 -2.701169 17.793003 0.409091 -0.896456 0.170327 0.158839 0.810887 1 21 1.000000
 47 1.865234 -2.568356 17.765659 0.495422 -0.867486 0.045013 0.165347 0.807439 1 21 1.000000
 47 1.877930 -2.554684 17.891636 0.434121 -0.707902 0.557147 0.165316 0.833471 1 21 1.000000
mnt_body.png
 47 1.865234 -2.568356 17.765659 0.495422 -0.867486 0.045013 0.165347 0.807439 1 21 1.000000
 47 2.117188 -2.406247 17.765659 0.576823 -0.803628 0.146483 0.171847 0.810956 1 21 1.000000
 47 1.877930 -2.554684 17.891636 0.434121 -0.707902 0.557147 0.165316 0.833471 1 21 1.000000
mnt_body.png
 47 2.117188 -2.406247 17.765659 0.576823 -0.803628 0.146483 0.171847 0.810956 1 21 1.000000
 47 2.291016 -2.253903 17.808628 0.600679 -0.735674 0.313000 0.176600 0.820508 1 21 1.000000
 47 1.877930 -2.554684 17.891636 0.434121 -0.707902 0.557147 0.165316 0.833471 1 21 1.000000
mnt_body.png
 47 2.291016 -2.253903 17.808628 0.600679 -0.735674 0.313000 0.176600 0.820508 1 21 1.000000
 47 2.347656 -2.175778 17.866245 0.557633 -0.657435 0.506779 0.178332 0.833532 1 21 1.000000
 47 1.877930 -2.554684 17.891636 0.434121 -0.707902 0.557147 0.165316 0.833471 1 21 1.000000
mnt_body.png
 47 2.347656 -2.175778 17.866245 0.557633 -0.657435 0.506779 0.178332 0.833532 1 21 1.000000
 47 2.265625 -2.177731 17.930698 0.414796 -0.504779 0.757062 0.176562 0.846540 1 21 1.000000
 47 1.877930 -2.554684 17.891636 0.434121 -0.707902 0.557147 0.165316 0.833471 1 21 1.000000
mnt_body.png
 47 -2.265625 -2.177731 17.930698 -0.414796 -0.504779 0.757062 0.176562 0.846540 1 21 1.000000
 47 -1.877930 -2.554684 17.891636 -0.434121 -0.707902 0.557147 0.165316 0.833471 1 21 1.000000
 47 -2.076172 -2.277341 17.952183 -0.293504 -0.399151 0.868639 0.171786 0.856054 1 21 1.000000
mnt_body.png
 47 -2.076172 -2.277341 17.952183 -0.293504 -0.399151 0.868639 0.171786 0.856054 1 21 1.000000
 47 -1.877930 -2.554684 17.891636 -0.434121 -0.707902 0.557147 0.165316 0.833471 1 21 1.000000
 47 -1.817383 -2.419919 17.970737 -0.270130 -0.393459 0.878761 0.165278 0.859503 1 21 1.000000
mnt_body.png
 47 -1.817383 -2.419919 17.970737 -0.270130 -0.393459 0.878761 0.165278 0.859503 1 21 1.000000
 47 -1.877930 -2.554684 17.891636 -0.434121 -0.707902 0.557147 0.165316 0.833471 1 21 1.000000
 47 -1.556641 -2.572262 17.979527 -0.260073 -0.414573 0.872062 0.158770 0.855978 1 21 1.000000
mnt_body.png
 47 -1.556641 -2.572262 17.979527 -0.260073 -0.414573 0.872062 0.158770 0.855978 1 21 1.000000
 47 -1.877930 -2.554684 17.891636 -0.434121 -0.707902 0.557147 0.165316 0.833471 1 21 1.000000
 47 -1.364258 -2.691403 17.978550 -0.281832 -0.573463 0.769227 0.154025 0.846426 1 21 1.000000
mnt_body.png
 47 -1.364258 -2.691403 17.978550 -0.281832 -0.573463 0.769227 0.154025 0.846426 1 21 1.000000
 47 -1.877930 -2.554684 17.891636 -0.434121 -0.707902 0.557147 0.165316 0.833471 1 21 1.000000
 47 -1.306641 -2.769528 17.920933 -0.319177 -0.781312 0.536356 0.152300 0.833394 1 21 1.000000
mnt_body.png
 47 -1.306641 -2.769528 17.920933 -0.319177 -0.781312 0.536356 0.152300 0.833394 1 21 1.000000
 47 -1.877930 -2.554684 17.891636 -0.434121 -0.707902 0.557147 0.165316 0.833471 1 21 1.000000
 47 -1.389648 -2.767575 17.855503 -0.352414 -0.869310 0.346561 0.154063 0.820394 1 21 1.000000
mnt_body.png
 47 -1.389648 -2.767575 17.855503 -0.352414 -0.869310 0.346561 0.154063 0.820394 1 21 1.000000
 47 -1.877930 -2.554684 17.891636 -0.434121 -0.707902 0.557147 0.165316 0.833471 1 21 1.000000
 47 -1.598633 -2.701169 17.793003 -0.409091 -0.896456 0.170327 0.158839 0.810887 1 21 1.000000
mnt_body.png
 47 -1.598633 -2.701169 17.793003 -0.409091 -0.896456 0.170327 0.158839 0.810887 1 21 1.000000
 47 -1.877930 -2.554684 17.891636 -0.434121 -0.707902 0.557147 0.165316 0.833471 1 21 1.000000
 47 -1.865234 -2.568356 17.765659 -0.495422 -0.867486 0.045013 0.165347 0.807439 1 21 1.000000
mnt_body.png
 47 -1.865234 -2.568356 17.765659 -0.495422 -0.867486 0.045013 0.165347 0.807439 1 21 1.000000
 47 -1.877930 -2.554684 17.891636 -0.434121 -0.707902 0.557147 0.165316 0.833471 1 21 1.000000
 47 -2.117188 -2.406247 17.765659 -0.576823 -0.803628 0.146483 0.171847 0.810956 1 21 1.000000
mnt_body.png
 47 -2.117188 -2.406247 17.765659 -0.576823 -0.803628 0.146483 0.171847 0.810956 1 21 1.000000
 47 -1.877930 -2.554684 17.891636 -0.434121 -0.707902 0.557147 0.165316 0.833471 1 21 1.000000
 47 -2.291016 -2.253903 17.808628 -0.600679 -0.735674 0.313000 0.176600 0.820508 1 21 1.000000
mnt_body.png
 47 -2.291016 -2.253903 17.808628 -0.600679 -0.735674 0.313000 0.176600 0.820508 1 21 1.000000
 47 -1.877930 -2.554684 17.891636 -0.434121 -0.707902 0.557147 0.165316 0.833471 1 21 1.000000
 47 -2.347656 -2.175778 17.866245 -0.557633 -0.657435 0.506779 0.178332 0.833532 1 21 1.000000
mnt_body.png
 47 -2.347656 -2.175778 17.866245 -0.557633 -0.657435 0.506779 0.178332 0.833532 1 21 1.000000
 47 -1.877930 -2.554684 17.891636 -0.434121 -0.707902 0.557147 0.165316 0.833471 1 21 1.000000
 47 -2.265625 -2.177731 17.930698 -0.414796 -0.504779 0.757062 0.176562 0.846540 1 21 1.000000
end
