version 1
nodes
  0 "bone_root"  -1
  1 "pos_center"   0
  2 "rot_center"   0
  3 "Hips"   2
  4 "Spine"   3
  5 "Spine1"   4
  6 "Head"   5
  7 "nose"   6
  8 "Hair0"   6
  9 "Hair1"   8
 10 "LeftShoulder"   5
 11 "LeftArm"  10
 12 "LeftForeArm"  11
 13 "LeftHand"  12
 14 "LeftHandItem"  13
 15 "LeftHandThumb1"  13
 16 "LeftHandThumb2"  15
 17 "LeftHandThumb3"  16
 18 "LeftHandMiddle1"  13
 19 "LeftHandMiddle2"  18
 20 "LeftHandMiddle3"  19
 21 "RightShoulder"   5
 22 "RightArm"  21
 23 "RightForeArm"  22
 24 "RightHand"  23
 25 "RightHandItem"  24
 26 "RightHandThumb1"  24
 27 "RightHandThumb2"  26
 28 "RightHandThumb3"  27
 29 "RightHandMiddle1"  24
 30 "RightHandMiddle2"  29
 31 "RightHandMiddle3"  30
 32 "Pelvis"   3
 33 "LeftUpLeg"  32
 34 "LeftLeg"  33
 35 "LeftFoot"  34
 36 "LeftToeBase"  35
 37 "RightUpLeg"  32
 38 "RightLeg"  37
 39 "RightFoot"  38
 40 "RightToeBase"  39
 41 "LeftSkirtA"  32
 42 "LeftSkirtB"  32
 43 "LeftSkirtC"  32
 44 "RightSkirtA"  32
 45 "RightSkirtB"  32
 46 "RightSkirtC"  32
 47 "Pianta_Eye_Close01"  -1
end
skeleton
time 0
  0 0.000000 0.000000 0.000000 1.570796 -0.000000 0.000000
  1 0.000000 0.000000 0.000000 0.000000 -0.000000 0.000000
  2 0.000000 7.970000 0.000000 0.000000 -0.000000 0.000000
  3 0.000000 0.000000 0.000000 -1.570701 0.000000 0.000000
  4 0.000000 0.000000 0.000000 0.000000 -0.000000 0.000000
  5 0.000000 -0.000000 4.210001 0.000000 -0.000000 0.000000
  6 0.000000 -0.000000 4.280003 0.000000 -0.000000 0.000000
  7 0.000000 -3.360000 1.000000 1.658042 -0.000000 0.000000
  8 0.000000 0.000000 3.700001 0.000000 -0.000000 0.000000
  9 0.000000 0.000000 4.399998 0.000000 -0.000000 0.000000
 10 1.400000 -0.000000 3.600002 -0.000000 1.570451 0.000000
 11 0.000002 -0.000001 2.839999 0.000000 -0.000000 0.000000
 12 0.000000 -0.000001 3.300000 0.000000 -0.000000 0.000000
 13 -0.000002 -0.000001 4.130001 0.000000 -0.000000 1.570701
 14 0.000000 -0.900003 3.399998 0.000000 -0.000000 0.000000
 15 -1.000000 -0.699997 0.600000 -0.628261 -0.610812 1.570701
 16 0.000000 -0.000001 2.080001 0.000000 -0.000000 -0.000000
 17 0.000000 0.000001 1.079998 -0.000000 0.000000 0.000000
 18 0.000000 0.549997 3.200000 0.000000 -0.000000 0.000000
 19 -0.000000 0.000000 1.080004 0.000000 -0.000000 0.000000
 20 0.000000 0.000000 1.079993 0.000000 -0.000000 0.000000
 21 -1.400000 -0.000000 3.600002 0.000000 -1.570451 0.000000
 22 -0.000003 -0.000001 2.839999 0.000000 -0.000000 0.000000
 23 0.000002 -0.000001 3.300001 0.000000 -0.000000 0.000000
 24 0.000000 -0.000001 4.130000 0.000000 -0.000000 -1.570701
 25 -0.000000 -0.900002 3.400001 0.000000 -0.000000 0.000000
 26 1.000000 -0.699999 0.600001 -0.628261 0.610812 -1.570701
 27 0.000004 -0.000001 2.080000 0.000000 0.000000 0.000000
 28 -0.000002 -0.000001 1.079999 0.000000 -0.000000 -0.000000
 29 0.000000 0.550000 3.200002 0.000000 -0.000000 0.000000
 30 0.000000 -0.000006 1.079999 0.000000 -0.000000 0.000000
 31 0.000000 0.000000 1.079994 0.000000 -0.000000 0.000000
 32 0.000000 0.000000 0.000000 3.141497 -0.000000 0.000000
 33 3.370000 0.000000 1.070000 0.000000 -0.000000 0.000000
 34 0.000000 0.000000 1.980000 0.000000 -0.000000 0.000000
 35 0.000000 0.000000 1.849999 0.000000 -0.000000 0.000000
 36 0.000000 2.900000 2.400000 -1.570701 0.000000 0.000000
 37 -3.370000 0.000000 1.070000 0.000000 -0.000000 0.000000
 38 0.000000 0.000000 1.980000 0.000000 -0.000000 0.000000
 39 0.000000 0.000000 1.849999 0.000000 -0.000000 0.000000
 40 0.000000 2.900000 2.400000 -1.570701 0.000000 0.000000
 41 2.980001 5.160001 -2.450003 0.348981 -0.000000 2.617930
 42 5.960000 0.000000 -2.449999 0.348787 0.000078 1.570741
 43 2.980000 -5.159997 -2.449998 0.348981 -0.000000 0.523567
 44 -2.980001 5.160001 -2.450003 0.348981 0.000000 -2.617930
 45 -5.960000 0.000000 -2.449999 0.348787 -0.000078 -1.570741
 46 -2.980000 -5.159997 -2.449998 0.348981 -0.000000 -0.523567
 47 0.000000 0.000000 0.000000 0.000000 -0.000000 0.000000
end
triangles
mnt_body_m.png
 47 2.030919 -2.201530 18.091827 0.426622 -0.217736 0.877830 0.171753 0.856079 1 6 1.000000
 47 2.191803 -2.261026 17.981556 0.586111 -0.355456 0.728096 0.173706 0.843262 1 6 1.000000
 47 2.251423 -2.155231 17.974358 0.631559 -0.307480 0.711751 0.176514 0.846558 1 6 1.000000
mnt_body_m.png
 47 2.191803 -2.261026 17.981556 0.586111 -0.355456 0.728096 0.173706 0.843262 1 6 1.000000
 47 2.276873 -2.291993 17.870991 0.725323 -0.489262 0.484281 0.175049 0.833496 1 6 1.000000
 47 2.251423 -2.155231 17.974358 0.631559 -0.307480 0.711751 0.176514 0.846558 1 6 1.000000
mnt_body_m.png
 47 2.251423 -2.155231 17.974358 0.631559 -0.307480 0.711751 0.176514 0.846558 1 6 1.000000
 47 2.276873 -2.291993 17.870991 0.725323 -0.489262 0.484281 0.175049 0.833496 1 6 1.000000
 47 2.358415 -2.194178 17.835299 0.755243 -0.458789 0.468103 0.178345 0.833496 1 6 1.000000
mnt_body_m.png
 47 2.276873 -2.291993 17.870991 0.725323 -0.489262 0.484281 0.175049 0.833496 1 6 1.000000
 47 2.248893 -2.382441 17.772881 0.727473 -0.667774 0.157672 0.173828 0.823730 1 6 1.000000
 47 2.358415 -2.194178 17.835299 0.755243 -0.458789 0.468103 0.178345 0.833496 1 6 1.000000
mnt_body_m.png
 47 2.358415 -2.194178 17.835299 0.755243 -0.458789 0.468103 0.178345 0.833496 1 6 1.000000
 47 2.248893 -2.382441 17.772881 0.727473 -0.667774 0.157672 0.173828 0.823730 1 6 1.000000
 47 2.323225 -2.307933 17.711908 0.766844 -0.615142 0.183167 0.176636 0.820557 1 6 1.000000
mnt_body_m.png
 47 2.248893 -2.382441 17.772881 0.727473 -0.667774 0.157672 0.173828 0.823730 1 6 1.000000
 47 2.115362 -2.508134 17.713520 0.610788 -0.791361 -0.026166 0.170166 0.816528 1 6 1.000000
 47 2.323225 -2.307933 17.711908 0.766844 -0.615142 0.183167 0.176636 0.820557 1 6 1.000000
mnt_body_m.png
 47 2.323225 -2.307933 17.711908 0.766844 -0.615142 0.183167 0.176636 0.820557 1 6 1.000000
 47 2.115362 -2.508134 17.713520 0.610788 -0.791361 -0.026166 0.170166 0.816528 1 6 1.000000
 47 2.155284 -2.466017 17.637251 0.641088 -0.762680 -0.085595 0.171875 0.810913 1 6 1.000000
mnt_body_m.png
 47 2.115362 -2.508134 17.713520 0.610788 -0.791361 -0.026166 0.170166 0.816528 1 6 1.000000
 47 1.912058 -2.635394 17.708813 0.441277 -0.891489 -0.102573 0.165283 0.813965 1 6 1.000000
 47 2.155284 -2.466017 17.637251 0.641088 -0.762680 -0.085595 0.171875 0.810913 1 6 1.000000
mnt_body_m.png
 47 2.155284 -2.466017 17.637251 0.641088 -0.762680 -0.085595 0.171875 0.810913 1 6 1.000000
 47 1.912058 -2.635394 17.708813 0.441277 -0.891489 -0.102573 0.165283 0.813965 1 6 1.000000
 47 1.899590 -2.626070 17.631330 0.444066 -0.878307 -0.177149 0.165405 0.807495 1 6 1.000000
mnt_body_m.png
 47 1.912058 -2.635394 17.708813 0.441277 -0.891489 -0.102573 0.165283 0.813965 1 6 1.000000
 47 1.693458 -2.730121 17.760019 0.317214 -0.947576 -0.038413 0.160400 0.816528 1 6 1.000000
 47 1.899590 -2.626070 17.631330 0.444066 -0.878307 -0.177149 0.165405 0.807495 1 6 1.000000
mnt_body_m.png
 47 1.899590 -2.626070 17.631330 0.444066 -0.878307 -0.177149 0.165405 0.807495 1 6 1.000000
 47 1.693458 -2.730121 17.760019 0.317214 -0.947576 -0.038413 0.160400 0.816528 1 6 1.000000
 47 1.624658 -2.745209 17.695734 0.260504 -0.964042 -0.052534 0.158813 0.810913 1 6 1.000000
mnt_body_m.png
 47 1.693458 -2.730121 17.760019 0.317214 -0.947576 -0.038413 0.160400 0.816528 1 6 1.000000
 47 1.518133 -2.766933 17.853422 0.189702 -0.956983 0.219535 0.156860 0.823608 1 6 1.000000
 47 1.624658 -2.745209 17.695734 0.260504 -0.964042 -0.052534 0.158813 0.810913 1 6 1.000000
mnt_body_m.png
 47 1.624658 -2.745209 17.695734 0.260504 -0.964042 -0.052534 0.158813 0.810913 1 6 1.000000
 47 1.518133 -2.766933 17.853422 0.189702 -0.956983 0.219535 0.156860 0.823608 1 6 1.000000
 47 1.404153 -2.791507 17.813204 0.125613 -0.964281 0.233202 0.154053 0.820435 1 6 1.000000
mnt_body_m.png
 47 1.518133 -2.766933 17.853422 0.189702 -0.956983 0.219535 0.156860 0.823608 1 6 1.000000
 47 1.433064 -2.735966 17.963989 0.100907 -0.852172 0.513440 0.155518 0.833374 1 6 1.000000
 47 1.404153 -2.791507 17.813204 0.125613 -0.964281 0.233202 0.154053 0.820435 1 6 1.000000
mnt_body_m.png
 47 1.404153 -2.791507 17.813204 0.125613 -0.964281 0.233202 0.154053 0.820435 1 6 1.000000
 47 1.433064 -2.735966 17.963989 0.100907 -0.852172 0.513440 0.155518 0.833374 1 6 1.000000
 47 1.297162 -2.752560 17.952265 0.058484 -0.849485 0.524361 0.152344 0.833374 1 6 1.000000
mnt_body_m.png
 47 1.433064 -2.735966 17.963989 0.100907 -0.852172 0.513440 0.155518 0.833374 1 6 1.000000
 47 1.461043 -2.645519 18.062099 0.098311 -0.628694 0.771413 0.156860 0.843140 1 6 1.000000
 47 1.297162 -2.752560 17.952265 0.058484 -0.849485 0.524361 0.152344 0.833374 1 6 1.000000
mnt_body_m.png
 47 1.297162 -2.752560 17.952265 0.058484 -0.849485 0.524361 0.152344 0.833374 1 6 1.000000
 47 1.461043 -2.645519 18.062099 0.098311 -0.628694 0.771413 0.156860 0.843140 1 6 1.000000
 47 1.332352 -2.638805 18.075655 0.044904 -0.657609 0.752020 0.154053 0.846436 1 6 1.000000
mnt_body_m.png
 47 1.461043 -2.645519 18.062099 0.098311 -0.628694 0.771413 0.156860 0.843140 1 6 1.000000
 47 1.594574 -2.519825 18.121460 0.169712 -0.455234 0.874048 0.160400 0.850342 1 6 1.000000
 47 1.332352 -2.638805 18.075655 0.044904 -0.657609 0.752020 0.154053 0.846436 1 6 1.000000
mnt_body_m.png
 47 1.332352 -2.638805 18.075655 0.044904 -0.657609 0.752020 0.154053 0.846436 1 6 1.000000
 47 1.594574 -2.519825 18.121460 0.169712 -0.455234 0.874048 0.160400 0.850342 1 6 1.000000
 47 1.500293 -2.480720 18.150312 0.101055 -0.421329 0.901260 0.158813 0.855957 1 6 1.000000
mnt_body_m.png
 47 1.594574 -2.519825 18.121460 0.169712 -0.455234 0.874048 0.160400 0.850342 1 6 1.000000
 47 1.797878 -2.392565 18.126167 0.284446 -0.329039 0.900457 0.165283 0.853027 1 6 1.000000
 47 1.500293 -2.480720 18.150312 0.101055 -0.421329 0.901260 0.158813 0.855957 1 6 1.000000
mnt_body_m.png
 47 1.500293 -2.480720 18.150312 0.101055 -0.421329 0.901260 0.158813 0.855957 1 6 1.000000
 47 1.797878 -2.392565 18.126167 0.284446 -0.329039 0.900457 0.165283 0.853027 1 6 1.000000
 47 1.755987 -2.320667 18.156233 0.233452 -0.256226 0.938002 0.165283 0.859497 1 6 1.000000
mnt_body_m.png
 47 1.797878 -2.392565 18.126167 0.284446 -0.329039 0.900457 0.165283 0.853027 1 6 1.000000
 47 2.016479 -2.297839 18.074957 0.405339 -0.294561 0.865410 0.170166 0.850464 1 6 1.000000
 47 1.755987 -2.320667 18.156233 0.233452 -0.256226 0.938002 0.165283 0.859497 1 6 1.000000
mnt_body_m.png
 47 1.755987 -2.320667 18.156233 0.233452 -0.256226 0.938002 0.165283 0.859497 1 6 1.000000
 47 2.016479 -2.297839 18.074957 0.405339 -0.294561 0.865410 0.170166 0.850464 1 6 1.000000
 47 2.030919 -2.201530 18.091827 0.426622 -0.217736 0.877830 0.171753 0.856079 1 6 1.000000
mnt_body_m.png
 47 2.030919 -2.201530 18.091827 0.426622 -0.217736 0.877830 0.171753 0.856079 1 6 1.000000
 47 2.016479 -2.297839 18.074957 0.405339 -0.294561 0.865410 0.170166 0.850464 1 6 1.000000
 47 2.191803 -2.261026 17.981556 0.586111 -0.355456 0.728096 0.173706 0.843262 1 6 1.000000
mnt_body_m.png
 47 2.016479 -2.297839 18.074957 0.405339 -0.294561 0.865410 0.170166 0.850464 1 6 1.000000
 47 2.053121 -2.399231 18.007797 0.496770 -0.488839 0.717116 0.169800 0.842407 1 6 1.000000
 47 2.191803 -2.261026 17.981556 0.586111 -0.355456 0.728096 0.173706 0.843262 1 6 1.000000
mnt_body_m.png
 47 2.053121 -2.399231 18.007797 0.496770 -0.488839 0.717116 0.169800 0.842407 1 6 1.000000
 47 2.161273 -2.438599 17.867229 0.638335 -0.656578 0.401787 0.171387 0.830200 1 6 1.000000
 47 2.191803 -2.261026 17.981556 0.586111 -0.355456 0.728096 0.173706 0.843262 1 6 1.000000
mnt_body_m.png
 47 2.191803 -2.261026 17.981556 0.586111 -0.355456 0.728096 0.173706 0.843262 1 6 1.000000
 47 2.161273 -2.438599 17.867229 0.638335 -0.656578 0.401787 0.171387 0.830200 1 6 1.000000
 47 2.276873 -2.291993 17.870991 0.725323 -0.489262 0.484281 0.175049 0.833496 1 6 1.000000
mnt_body_m.png
 47 2.276873 -2.291993 17.870991 0.725323 -0.489262 0.484281 0.175049 0.833496 1 6 1.000000
 47 2.161273 -2.438599 17.867229 0.638335 -0.656578 0.401787 0.171387 0.830200 1 6 1.000000
 47 2.248893 -2.382441 17.772881 0.727473 -0.667774 0.157672 0.173828 0.823730 1 6 1.000000
mnt_body_m.png
 47 2.161273 -2.438599 17.867229 0.638335 -0.656578 0.401787 0.171387 0.830200 1 6 1.000000
 47 1.991510 -2.598398 17.791763 0.527119 -0.840076 0.128134 0.166992 0.821289 1 6 1.000000
 47 2.248893 -2.382441 17.772881 0.727473 -0.667774 0.157672 0.173828 0.823730 1 6 1.000000
mnt_body_m.png
 47 2.248893 -2.382441 17.772881 0.727473 -0.667774 0.157672 0.173828 0.823730 1 6 1.000000
 47 1.991510 -2.598398 17.791763 0.527119 -0.840076 0.128134 0.166992 0.821289 1 6 1.000000
 47 2.115362 -2.508134 17.713520 0.610788 -0.791361 -0.026166 0.170166 0.816528 1 6 1.000000
mnt_body_m.png
 47 2.115362 -2.508134 17.713520 0.610788 -0.791361 -0.026166 0.170166 0.816528 1 6 1.000000
 47 1.991510 -2.598398 17.791763 0.527119 -0.840076 0.128134 0.166992 0.821289 1 6 1.000000
 47 1.912058 -2.635394 17.708813 0.441277 -0.891489 -0.102573 0.165283 0.813965 1 6 1.000000
mnt_body_m.png
 47 1.991510 -2.598398 17.791763 0.527119 -0.840076 0.128134 0.166992 0.821289 1 6 1.000000
 47 1.713595 -2.718828 17.856865 0.329989 -0.909194 0.253917 0.160889 0.824585 1 6 1.000000
 47 1.912058 -2.635394 17.708813 0.441277 -0.891489 -0.102573 0.165283 0.813965 1 6 1.000000
mnt_body_m.png
 47 1.912058 -2.635394 17.708813 0.441277 -0.891489 -0.102573 0.165283 0.813965 1 6 1.000000
 47 1.713595 -2.718828 17.856865 0.329989 -0.909194 0.253917 0.160889 0.824585 1 6 1.000000
 47 1.693458 -2.730121 17.760019 0.317214 -0.947576 -0.038413 0.160400 0.816528 1 6 1.000000
mnt_body_m.png
 47 1.693458 -2.730121 17.760019 0.317214 -0.947576 -0.038413 0.160400 0.816528 1 6 1.000000
 47 1.713595 -2.718828 17.856865 0.329989 -0.909194 0.253917 0.160889 0.824585 1 6 1.000000
 47 1.518133 -2.766933 17.853422 0.189702 -0.956983 0.219535 0.156860 0.823608 1 6 1.000000
mnt_body_m.png
 47 1.713595 -2.718828 17.856865 0.329989 -0.909194 0.253917 0.160889 0.824585 1 6 1.000000
 47 1.605443 -2.679459 17.997433 0.233722 -0.758287 0.608584 0.159180 0.836670 1 6 1.000000
 47 1.518133 -2.766933 17.853422 0.189702 -0.956983 0.219535 0.156860 0.823608 1 6 1.000000
mnt_body_m.png
 47 1.518133 -2.766933 17.853422 0.189702 -0.956983 0.219535 0.156860 0.823608 1 6 1.000000
 47 1.605443 -2.679459 17.997433 0.233722 -0.758287 0.608584 0.159180 0.836670 1 6 1.000000
 47 1.433064 -2.735966 17.963989 0.100907 -0.852172 0.513440 0.155518 0.833374 1 6 1.000000
mnt_body_m.png
 47 1.433064 -2.735966 17.963989 0.100907 -0.852172 0.513440 0.155518 0.833374 1 6 1.000000
 47 1.605443 -2.679459 17.997433 0.233722 -0.758287 0.608584 0.159180 0.836670 1 6 1.000000
 47 1.461043 -2.645519 18.062099 0.098311 -0.628694 0.771413 0.156860 0.843140 1 6 1.000000
mnt_body_m.png
 47 1.605443 -2.679459 17.997433 0.233722 -0.758287 0.608584 0.159180 0.836670 1 6 1.000000
 47 1.775206 -2.519660 18.072901 0.308289 -0.531623 0.788882 0.163696 0.845581 1 6 1.000000
 47 1.461043 -2.645519 18.062099 0.098311 -0.628694 0.771413 0.156860 0.843140 1 6 1.000000
mnt_body_m.png
 47 1.461043 -2.645519 18.062099 0.098311 -0.628694 0.771413 0.156860 0.843140 1 6 1.000000
 47 1.775206 -2.519660 18.072901 0.308289 -0.531623 0.788882 0.163696 0.845581 1 6 1.000000
 47 1.594574 -2.519825 18.121460 0.169712 -0.455234 0.874048 0.160400 0.850342 1 6 1.000000
mnt_body_m.png
 47 1.594574 -2.519825 18.121460 0.169712 -0.455234 0.874048 0.160400 0.850342 1 6 1.000000
 47 1.775206 -2.519660 18.072901 0.308289 -0.531623 0.788882 0.163696 0.845581 1 6 1.000000
 47 1.797878 -2.392565 18.126167 0.284446 -0.329039 0.900457 0.165283 0.853027 1 6 1.000000
mnt_body_m.png
 47 1.775206 -2.519660 18.072901 0.308289 -0.531623 0.788882 0.163696 0.845581 1 6 1.000000
 47 2.053121 -2.399231 18.007797 0.496770 -0.488839 0.717116 0.169800 0.842407 1 6 1.000000
 47 1.797878 -2.392565 18.126167 0.284446 -0.329039 0.900457 0.165283 0.853027 1 6 1.000000
mnt_body_m.png
 47 1.797878 -2.392565 18.126167 0.284446 -0.329039 0.900457 0.165283 0.853027 1 6 1.000000
 47 2.053121 -2.399231 18.007797 0.496770 -0.488839 0.717116 0.169800 0.842407 1 6 1.000000
 47 2.016479 -2.297839 18.074957 0.405339 -0.294561 0.865410 0.170166 0.850464 1 6 1.000000
mnt_body_m.png
 47 1.775206 -2.519660 18.072901 0.308289 -0.531623 0.788882 0.163696 0.845581 1 6 1.000000
 47 1.909015 -2.581596 17.949003 0.442430 -0.719215 0.535711 0.165283 0.833496 1 6 1.000000
 47 2.053121 -2.399231 18.007797 0.496770 -0.488839 0.717116 0.169800 0.842407 1 6 1.000000
mnt_body_m.png
 47 2.053121 -2.399231 18.007797 0.496770 -0.488839 0.717116 0.169800 0.842407 1 6 1.000000
 47 1.909015 -2.581596 17.949003 0.442430 -0.719215 0.535711 0.165283 0.833496 1 6 1.000000
 47 2.161273 -2.438599 17.867229 0.638335 -0.656578 0.401787 0.171387 0.830200 1 6 1.000000
mnt_body_m.png
 47 2.161273 -2.438599 17.867229 0.638335 -0.656578 0.401787 0.171387 0.830200 1 6 1.000000
 47 1.909015 -2.581596 17.949003 0.442430 -0.719215 0.535711 0.165283 0.833496 1 6 1.000000
 47 1.991510 -2.598398 17.791763 0.527119 -0.840076 0.128134 0.166992 0.821289 1 6 1.000000
mnt_body_m.png
 47 1.991510 -2.598398 17.791763 0.527119 -0.840076 0.128134 0.166992 0.821289 1 6 1.000000
 47 1.909015 -2.581596 17.949003 0.442430 -0.719215 0.535711 0.165283 0.833496 1 6 1.000000
 47 1.713595 -2.718828 17.856865 0.329989 -0.909194 0.253917 0.160889 0.824585 1 6 1.000000
mnt_body_m.png
 47 1.713595 -2.718828 17.856865 0.329989 -0.909194 0.253917 0.160889 0.824585 1 6 1.000000
 47 1.909015 -2.581596 17.949003 0.442430 -0.719215 0.535711 0.165283 0.833496 1 6 1.000000
 47 1.605443 -2.679459 17.997433 0.233722 -0.758287 0.608584 0.159180 0.836670 1 6 1.000000
mnt_body_m.png
 47 1.909015 -2.581596 17.949003 0.442430 -0.719215 0.535711 0.165283 0.833496 1 6 1.000000
 47 1.775206 -2.519660 18.072901 0.308289 -0.531623 0.788882 0.163696 0.845581 1 6 1.000000
 47 1.605443 -2.679459 17.997433 0.233722 -0.758287 0.608584 0.159180 0.836670 1 6 1.000000
mnt_body_m.png
 47 -2.251423 -2.155231 17.974358 -0.631559 -0.307480 0.711751 0.154053 0.846558 1 6 1.000000
 47 -2.191803 -2.261026 17.981556 -0.586111 -0.355456 0.728096 0.156860 0.843262 1 6 1.000000
 47 -2.030919 -2.201530 18.091827 -0.426622 -0.217736 0.877830 0.158813 0.856079 1 6 1.000000
mnt_body_m.png
 47 -2.191803 -2.261026 17.981556 -0.586111 -0.355456 0.728096 0.156860 0.843262 1 6 1.000000
 47 -2.016479 -2.297839 18.074957 -0.405339 -0.294561 0.865410 0.160400 0.850464 1 6 1.000000
 47 -2.030919 -2.201530 18.091827 -0.426622 -0.217736 0.877830 0.158813 0.856079 1 6 1.000000
mnt_body_m.png
 47 -2.030919 -2.201530 18.091827 -0.426622 -0.217736 0.877830 0.158813 0.856079 1 6 1.000000
 47 -2.016479 -2.297839 18.074957 -0.405339 -0.294561 0.865410 0.160400 0.850464 1 6 1.000000
 47 -1.755987 -2.320667 18.156233 -0.233452 -0.256226 0.938002 0.165405 0.859497 1 6 1.000000
mnt_body_m.png
 47 -2.016479 -2.297839 18.074957 -0.405339 -0.294561 0.865410 0.160400 0.850464 1 6 1.000000
 47 -1.797878 -2.392565 18.126167 -0.284446 -0.329039 0.900457 0.165283 0.853027 1 6 1.000000
 47 -1.755987 -2.320667 18.156233 -0.233452 -0.256226 0.938002 0.165405 0.859497 1 6 1.000000
mnt_body_m.png
 47 -1.755987 -2.320667 18.156233 -0.233452 -0.256226 0.938002 0.165405 0.859497 1 6 1.000000
 47 -1.797878 -2.392565 18.126167 -0.284446 -0.329039 0.900457 0.165283 0.853027 1 6 1.000000
 47 -1.500293 -2.480720 18.150312 -0.101055 -0.421329 0.901260 0.171875 0.855957 1 6 1.000000
mnt_body_m.png
 47 -1.797878 -2.392565 18.126167 -0.284446 -0.329039 0.900457 0.165283 0.853027 1 6 1.000000
 47 -1.594574 -2.519825 18.121460 -0.169712 -0.455234 0.874048 0.170166 0.850342 1 6 1.000000
 47 -1.500293 -2.480720 18.150312 -0.101055 -0.421329 0.901260 0.171875 0.855957 1 6 1.000000
mnt_body_m.png
 47 -1.500293 -2.480720 18.150312 -0.101055 -0.421329 0.901260 0.171875 0.855957 1 6 1.000000
 47 -1.594574 -2.519825 18.121460 -0.169712 -0.455234 0.874048 0.170166 0.850342 1 6 1.000000
 47 -1.332352 -2.638805 18.075655 -0.044904 -0.657609 0.752020 0.176636 0.846436 1 6 1.000000
mnt_body_m.png
 47 -1.594574 -2.519825 18.121460 -0.169712 -0.455234 0.874048 0.170166 0.850342 1 6 1.000000
 47 -1.461043 -2.645519 18.062099 -0.098311 -0.628694 0.771413 0.173828 0.843140 1 6 1.000000
 47 -1.332352 -2.638805 18.075655 -0.044904 -0.657609 0.752020 0.176636 0.846436 1 6 1.000000
mnt_body_m.png
 47 -1.332352 -2.638805 18.075655 -0.044904 -0.657609 0.752020 0.176636 0.846436 1 6 1.000000
 47 -1.461043 -2.645519 18.062099 -0.098311 -0.628694 0.771413 0.173828 0.843140 1 6 1.000000
 47 -1.297162 -2.752560 17.952265 -0.058484 -0.849485 0.524361 0.178345 0.833374 1 6 1.000000
mnt_body_m.png
 47 -1.461043 -2.645519 18.062099 -0.098311 -0.628694 0.771413 0.173828 0.843140 1 6 1.000000
 47 -1.433064 -2.735966 17.963989 -0.100907 -0.852172 0.513440 0.175049 0.833374 1 6 1.000000
 47 -1.297162 -2.752560 17.952265 -0.058484 -0.849485 0.524361 0.178345 0.833374 1 6 1.000000
mnt_body_m.png
 47 -1.297162 -2.752560 17.952265 -0.058484 -0.849485 0.524361 0.178345 0.833374 1 6 1.000000
 47 -1.433064 -2.735966 17.963989 -0.100907 -0.852172 0.513440 0.175049 0.833374 1 6 1.000000
 47 -1.404153 -2.791507 17.813204 -0.125613 -0.964281 0.233202 0.176514 0.820435 1 6 1.000000
mnt_body_m.png
 47 -1.433064 -2.735966 17.963989 -0.100907 -0.852172 0.513440 0.175049 0.833374 1 6 1.000000
 47 -1.518133 -2.766933 17.853422 -0.189702 -0.956983 0.219535 0.173706 0.823608 1 6 1.000000
 47 -1.404153 -2.791507 17.813204 -0.125613 -0.964281 0.233202 0.176514 0.820435 1 6 1.000000
mnt_body_m.png
 47 -1.404153 -2.791507 17.813204 -0.125613 -0.964281 0.233202 0.176514 0.820435 1 6 1.000000
 47 -1.518133 -2.766933 17.853422 -0.189702 -0.956983 0.219535 0.173706 0.823608 1 6 1.000000
 47 -1.624658 -2.745209 17.695734 -0.260504 -0.964042 -0.052534 0.171753 0.810913 1 6 1.000000
mnt_body_m.png
 47 -1.518133 -2.766933 17.853422 -0.189702 -0.956983 0.219535 0.173706 0.823608 1 6 1.000000
 47 -1.693458 -2.730121 17.760019 -0.317214 -0.947576 -0.038413 0.170166 0.816528 1 6 1.000000
 47 -1.624658 -2.745209 17.695734 -0.260504 -0.964042 -0.052534 0.171753 0.810913 1 6 1.000000
mnt_body_m.png
 47 -1.624658 -2.745209 17.695734 -0.260504 -0.964042 -0.052534 0.171753 0.810913 1 6 1.000000
 47 -1.693458 -2.730121 17.760019 -0.317214 -0.947576 -0.038413 0.170166 0.816528 1 6 1.000000
 47 -1.899590 -2.626070 17.631330 -0.444066 -0.878307 -0.177149 0.165283 0.807495 1 6 1.000000
mnt_body_m.png
 47 -1.693458 -2.730121 17.760019 -0.317214 -0.947576 -0.038413 0.170166 0.816528 1 6 1.000000
 47 -1.912058 -2.635394 17.708813 -0.441277 -0.891489 -0.102573 0.165283 0.813965 1 6 1.000000
 47 -1.899590 -2.626070 17.631330 -0.444066 -0.878307 -0.177149 0.165283 0.807495 1 6 1.000000
mnt_body_m.png
 47 -1.899590 -2.626070 17.631330 -0.444066 -0.878307 -0.177149 0.165283 0.807495 1 6 1.000000
 47 -1.912058 -2.635394 17.708813 -0.441277 -0.891489 -0.102573 0.165283 0.813965 1 6 1.000000
 47 -2.155284 -2.466017 17.637251 -0.641088 -0.762680 -0.085595 0.158813 0.810913 1 6 1.000000
mnt_body_m.png
 47 -1.912058 -2.635394 17.708813 -0.441277 -0.891489 -0.102573 0.165283 0.813965 1 6 1.000000
 47 -2.115362 -2.508134 17.713520 -0.610788 -0.791361 -0.026166 0.160400 0.816528 1 6 1.000000
 47 -2.155284 -2.466017 17.637251 -0.641088 -0.762680 -0.085595 0.158813 0.810913 1 6 1.000000
mnt_body_m.png
 47 -2.155284 -2.466017 17.637251 -0.641088 -0.762680 -0.085595 0.158813 0.810913 1 6 1.000000
 47 -2.115362 -2.508134 17.713520 -0.610788 -0.791361 -0.026166 0.160400 0.816528 1 6 1.000000
 47 -2.323225 -2.307933 17.711908 -0.766844 -0.615142 0.183167 0.154053 0.820557 1 6 1.000000
mnt_body_m.png
 47 -2.115362 -2.508134 17.713520 -0.610788 -0.791361 -0.026166 0.160400 0.816528 1 6 1.000000
 47 -2.248893 -2.382441 17.772881 -0.727473 -0.667774 0.157672 0.156860 0.823730 1 6 1.000000
 47 -2.323225 -2.307933 17.711908 -0.766844 -0.615142 0.183167 0.154053 0.820557 1 6 1.000000
mnt_body_m.png
 47 -2.323225 -2.307933 17.711908 -0.766844 -0.615142 0.183167 0.154053 0.820557 1 6 1.000000
 47 -2.248893 -2.382441 17.772881 -0.727473 -0.667774 0.157672 0.156860 0.823730 1 6 1.000000
 47 -2.358415 -2.194178 17.835299 -0.755243 -0.458789 0.468103 0.152344 0.833496 1 6 1.000000
mnt_body_m.png
 47 -2.248893 -2.382441 17.772881 -0.727473 -0.667774 0.157672 0.156860 0.823730 1 6 1.000000
 47 -2.276873 -2.291993 17.870991 -0.725323 -0.489262 0.484281 0.155518 0.833496 1 6 1.000000
 47 -2.358415 -2.194178 17.835299 -0.755243 -0.458789 0.468103 0.152344 0.833496 1 6 1.000000
mnt_body_m.png
 47 -2.358415 -2.194178 17.835299 -0.755243 -0.458789 0.468103 0.152344 0.833496 1 6 1.000000
 47 -2.276873 -2.291993 17.870991 -0.725323 -0.489262 0.484281 0.155518 0.833496 1 6 1.000000
 47 -2.251423 -2.155231 17.974358 -0.631559 -0.307480 0.711751 0.154053 0.846558 1 6 1.000000
mnt_body_m.png
 47 -2.251423 -2.155231 17.974358 -0.631559 -0.307480 0.711751 0.154053 0.846558 1 6 1.000000
 47 -2.276873 -2.291993 17.870991 -0.725323 -0.489262 0.484281 0.155518 0.833496 1 6 1.000000
 47 -2.191803 -2.261026 17.981556 -0.586111 -0.355456 0.728096 0.156860 0.843262 1 6 1.000000
mnt_body_m.png
 47 -2.276873 -2.291993 17.870991 -0.725323 -0.489262 0.484281 0.155518 0.833496 1 6 1.000000
 47 -2.161273 -2.438599 17.867229 -0.638335 -0.656578 0.401787 0.159180 0.830200 1 6 1.000000
 47 -2.191803 -2.261026 17.981556 -0.586111 -0.355456 0.728096 0.156860 0.843262 1 6 1.000000
mnt_body_m.png
 47 -2.161273 -2.438599 17.867229 -0.638335 -0.656578 0.401787 0.159180 0.830200 1 6 1.000000
 47 -2.053121 -2.399231 18.007797 -0.496770 -0.488839 0.717116 0.160889 0.842407 1 6 1.000000
 47 -2.191803 -2.261026 17.981556 -0.586111 -0.355456 0.728096 0.156860 0.843262 1 6 1.000000
mnt_body_m.png
 47 -2.191803 -2.261026 17.981556 -0.586111 -0.355456 0.728096 0.156860 0.843262 1 6 1.000000
 47 -2.053121 -2.399231 18.007797 -0.496770 -0.488839 0.717116 0.160889 0.842407 1 6 1.000000
 47 -2.016479 -2.297839 18.074957 -0.405339 -0.294561 0.865410 0.160400 0.850464 1 6 1.000000
mnt_body_m.png
 47 -2.016479 -2.297839 18.074957 -0.405339 -0.294561 0.865410 0.160400 0.850464 1 6 1.000000
 47 -2.053121 -2.399231 18.007797 -0.496770 -0.488839 0.717116 0.160889 0.842407 1 6 1.000000
 47 -1.797878 -2.392565 18.126167 -0.284446 -0.329039 0.900457 0.165283 0.853027 1 6 1.000000
mnt_body_m.png
 47 -2.053121 -2.399231 18.007797 -0.496770 -0.488839 0.717116 0.160889 0.842407 1 6 1.000000
 47 -1.775206 -2.519660 18.072901 -0.308289 -0.531623 0.788882 0.166992 0.845581 1 6 1.000000
 47 -1.797878 -2.392565 18.126167 -0.284446 -0.329039 0.900457 0.165283 0.853027 1 6 1.000000
mnt_body_m.png
 47 -1.797878 -2.392565 18.126167 -0.284446 -0.329039 0.900457 0.165283 0.853027 1 6 1.000000
 47 -1.775206 -2.519660 18.072901 -0.308289 -0.531623 0.788882 0.166992 0.845581 1 6 1.000000
 47 -1.594574 -2.519825 18.121460 -0.169712 -0.455234 0.874048 0.170166 0.850342 1 6 1.000000
mnt_body_m.png
 47 -1.594574 -2.519825 18.121460 -0.169712 -0.455234 0.874048 0.170166 0.850342 1 6 1.000000
 47 -1.775206 -2.519660 18.072901 -0.308289 -0.531623 0.788882 0.166992 0.845581 1 6 1.000000
 47 -1.461043 -2.645519 18.062099 -0.098311 -0.628694 0.771413 0.173828 0.843140 1 6 1.000000
mnt_body_m.png
 47 -1.775206 -2.519660 18.072901 -0.308289 -0.531623 0.788882 0.166992 0.845581 1 6 1.000000
 47 -1.605443 -2.679459 17.997433 -0.233722 -0.758287 0.608584 0.171387 0.836670 1 6 1.000000
 47 -1.461043 -2.645519 18.062099 -0.098311 -0.628694 0.771413 0.173828 0.843140 1 6 1.000000
mnt_body_m.png
 47 -1.461043 -2.645519 18.062099 -0.098311 -0.628694 0.771413 0.173828 0.843140 1 6 1.000000
 47 -1.605443 -2.679459 17.997433 -0.233722 -0.758287 0.608584 0.171387 0.836670 1 6 1.000000
 47 -1.433064 -2.735966 17.963989 -0.100907 -0.852172 0.513440 0.175049 0.833374 1 6 1.000000
mnt_body_m.png
 47 -1.433064 -2.735966 17.963989 -0.100907 -0.852172 0.513440 0.175049 0.833374 1 6 1.000000
 47 -1.605443 -2.679459 17.997433 -0.233722 -0.758287 0.608584 0.171387 0.836670 1 6 1.000000
 47 -1.518133 -2.766933 17.853422 -0.189702 -0.956983 0.219535 0.173706 0.823608 1 6 1.000000
mnt_body_m.png
 47 -1.605443 -2.679459 17.997433 -0.233722 -0.758287 0.608584 0.171387 0.836670 1 6 1.000000
 47 -1.713595 -2.718828 17.856865 -0.329989 -0.909194 0.253917 0.169800 0.824585 1 6 1.000000
 47 -1.518133 -2.766933 17.853422 -0.189702 -0.956983 0.219535 0.173706 0.823608 1 6 1.000000
mnt_body_m.png
 47 -1.518133 -2.766933 17.853422 -0.189702 -0.956983 0.219535 0.173706 0.823608 1 6 1.000000
 47 -1.713595 -2.718828 17.856865 -0.329989 -0.909194 0.253917 0.169800 0.824585 1 6 1.000000
 47 -1.693458 -2.730121 17.760019 -0.317214 -0.947576 -0.038413 0.170166 0.816528 1 6 1.000000
mnt_body_m.png
 47 -1.693458 -2.730121 17.760019 -0.317214 -0.947576 -0.038413 0.170166 0.816528 1 6 1.000000
 47 -1.713595 -2.718828 17.856865 -0.329989 -0.909194 0.253917 0.169800 0.824585 1 6 1.000000
 47 -1.912058 -2.635394 17.708813 -0.441277 -0.891489 -0.102573 0.165283 0.813965 1 6 1.000000
mnt_body_m.png
 47 -1.713595 -2.718828 17.856865 -0.329989 -0.909194 0.253917 0.169800 0.824585 1 6 1.000000
 47 -1.991510 -2.598398 17.791763 -0.527118 -0.840076 0.128134 0.163696 0.821289 1 6 1.000000
 47 -1.912058 -2.635394 17.708813 -0.441277 -0.891489 -0.102573 0.165283 0.813965 1 6 1.000000
mnt_body_m.png
 47 -1.912058 -2.635394 17.708813 -0.441277 -0.891489 -0.102573 0.165283 0.813965 1 6 1.000000
 47 -1.991510 -2.598398 17.791763 -0.527118 -0.840076 0.128134 0.163696 0.821289 1 6 1.000000
 47 -2.115362 -2.508134 17.713520 -0.610788 -0.791361 -0.026166 0.160400 0.816528 1 6 1.000000
mnt_body_m.png
 47 -2.115362 -2.508134 17.713520 -0.610788 -0.791361 -0.026166 0.160400 0.816528 1 6 1.000000
 47 -1.991510 -2.598398 17.791763 -0.527118 -0.840076 0.128134 0.163696 0.821289 1 6 1.000000
 47 -2.248893 -2.382441 17.772881 -0.727473 -0.667774 0.157672 0.156860 0.823730 1 6 1.000000
mnt_body_m.png
 47 -1.991510 -2.598398 17.791763 -0.527118 -0.840076 0.128134 0.163696 0.821289 1 6 1.000000
 47 -2.161273 -2.438599 17.867229 -0.638335 -0.656578 0.401787 0.159180 0.830200 1 6 1.000000
 47 -2.248893 -2.382441 17.772881 -0.727473 -0.667774 0.157672 0.156860 0.823730 1 6 1.000000
mnt_body_m.png
 47 -2.248893 -2.382441 17.772881 -0.727473 -0.667774 0.157672 0.156860 0.823730 1 6 1.000000
 47 -2.161273 -2.438599 17.867229 -0.638335 -0.656578 0.401787 0.159180 0.830200 1 6 1.000000
 47 -2.276873 -2.291993 17.870991 -0.725323 -0.489262 0.484281 0.155518 0.833496 1 6 1.000000
mnt_body_m.png
 47 -1.991510 -2.598398 17.791763 -0.527118 -0.840076 0.128134 0.163696 0.821289 1 6 1.000000
 47 -1.909015 -2.581596 17.949003 -0.442430 -0.719214 0.535711 0.165283 0.833496 1 6 1.000000
 47 -2.161273 -2.438599 17.867229 -0.638335 -0.656578 0.401787 0.159180 0.830200 1 6 1.000000
mnt_body_m.png
 47 -2.161273 -2.438599 17.867229 -0.638335 -0.656578 0.401787 0.159180 0.830200 1 6 1.000000
 47 -1.909015 -2.581596 17.949003 -0.442430 -0.719214 0.535711 0.165283 0.833496 1 6 1.000000
 47 -2.053121 -2.399231 18.007797 -0.496770 -0.488839 0.717116 0.160889 0.842407 1 6 1.000000
mnt_body_m.png
 47 -2.053121 -2.399231 18.007797 -0.496770 -0.488839 0.717116 0.160889 0.842407 1 6 1.000000
 47 -1.909015 -2.581596 17.949003 -0.442430 -0.719214 0.535711 0.165283 0.833496 1 6 1.000000
 47 -1.775206 -2.519660 18.072901 -0.308289 -0.531623 0.788882 0.166992 0.845581 1 6 1.000000
mnt_body_m.png
 47 -1.775206 -2.519660 18.072901 -0.308289 -0.531623 0.788882 0.166992 0.845581 1 6 1.000000
 47 -1.909015 -2.581596 17.949003 -0.442430 -0.719214 0.535711 0.165283 0.833496 1 6 1.000000
 47 -1.605443 -2.679459 17.997433 -0.233722 -0.758287 0.608584 0.171387 0.836670 1 6 1.000000
mnt_body_m.png
 47 -1.605443 -2.679459 17.997433 -0.233722 -0.758287 0.608584 0.171387 0.836670 1 6 1.000000
 47 -1.909015 -2.581596 17.949003 -0.442430 -0.719214 0.535711 0.165283 0.833496 1 6 1.000000
 47 -1.713595 -2.718828 17.856865 -0.329989 -0.909194 0.253917 0.169800 0.824585 1 6 1.000000
mnt_body_m.png
 47 -1.909015 -2.581596 17.949003 -0.442430 -0.719214 0.535711 0.165283 0.833496 1 6 1.000000
 47 -1.991510 -2.598398 17.791763 -0.527118 -0.840076 0.128134 0.163696 0.821289 1 6 1.000000
 47 -1.713595 -2.718828 17.856865 -0.329989 -0.909194 0.253917 0.169800 0.824585 1 6 1.000000
end
