version 1
nodes
  0 "bone_root"  -1
  1 "pos_center"   0
  2 "rot_center"   0
  3 "Hips"   2
  4 "Spine"   3
  5 "Spine1"   4
  6 "Head"   5
  7 "nose"   6
  8 "Hair0"   6
  9 "Hair1"   8
 10 "LeftShoulder"   5
 11 "LeftArm"  10
 12 "LeftForeArm"  11
 13 "LeftHand"  12
 14 "LeftHandItem"  13
 15 "LeftHandThumb1"  13
 16 "LeftHandThumb2"  15
 17 "LeftHandThumb3"  16
 18 "LeftHandMiddle1"  13
 19 "LeftHandMiddle2"  18
 20 "LeftHandMiddle3"  19
 21 "RightShoulder"   5
 22 "RightArm"  21
 23 "RightForeArm"  22
 24 "RightHand"  23
 25 "RightHandItem"  24
 26 "RightHandThumb1"  24
 27 "RightHandThumb2"  26
 28 "RightHandThumb3"  27
 29 "RightHandMiddle1"  24
 30 "RightHandMiddle2"  29
 31 "RightHandMiddle3"  30
 32 "Pelvis"   3
 33 "LeftUpLeg"  32
 34 "LeftLeg"  33
 35 "LeftFoot"  34
 36 "LeftToeBase"  35
 37 "RightUpLeg"  32
 38 "RightLeg"  37
 39 "RightFoot"  38
 40 "RightToeBase"  39
 41 "LeftSkirtA"  32
 42 "LeftSkirtB"  32
 43 "LeftSkirtC"  32
 44 "RightSkirtA"  32
 45 "RightSkirtB"  32
 46 "RightSkirtC"  32
 47 "Pianta_Eye_Close02"  -1
end
skeleton
time 0
  0 0.000000 0.000000 0.000000 1.570796 -0.000000 0.000000
  1 0.000000 0.000000 0.000000 0.000000 -0.000000 0.000000
  2 0.000000 7.970000 0.000000 0.000000 -0.000000 0.000000
  3 0.000000 0.000000 0.000000 -1.570701 0.000000 0.000000
  4 0.000000 0.000000 0.000000 0.000000 -0.000000 0.000000
  5 0.000000 -0.000000 4.210001 0.000000 -0.000000 0.000000
  6 0.000000 -0.000000 4.280003 0.000000 -0.000000 0.000000
  7 0.000000 -3.360000 1.000000 1.658042 -0.000000 0.000000
  8 0.000000 0.000000 3.700001 0.000000 -0.000000 0.000000
  9 0.000000 0.000000 4.399998 0.000000 -0.000000 0.000000
 10 1.400000 -0.000000 3.600002 -0.000000 1.570451 0.000000
 11 0.000002 -0.000001 2.839999 0.000000 -0.000000 0.000000
 12 0.000000 -0.000001 3.300000 0.000000 -0.000000 0.000000
 13 -0.000002 -0.000001 4.130001 0.000000 -0.000000 1.570701
 14 0.000000 -0.900003 3.399998 0.000000 -0.000000 0.000000
 15 -1.000000 -0.699997 0.600000 -0.628261 -0.610812 1.570701
 16 0.000000 -0.000001 2.080001 0.000000 -0.000000 -0.000000
 17 0.000000 0.000001 1.079998 -0.000000 0.000000 0.000000
 18 0.000000 0.549997 3.200000 0.000000 -0.000000 0.000000
 19 -0.000000 0.000000 1.080004 0.000000 -0.000000 0.000000
 20 0.000000 0.000000 1.079993 0.000000 -0.000000 0.000000
 21 -1.400000 -0.000000 3.600002 0.000000 -1.570451 0.000000
 22 -0.000003 -0.000001 2.839999 0.000000 -0.000000 0.000000
 23 0.000002 -0.000001 3.300001 0.000000 -0.000000 0.000000
 24 0.000000 -0.000001 4.130000 0.000000 -0.000000 -1.570701
 25 -0.000000 -0.900002 3.400001 0.000000 -0.000000 0.000000
 26 1.000000 -0.699999 0.600001 -0.628261 0.610812 -1.570701
 27 0.000004 -0.000001 2.080000 0.000000 0.000000 0.000000
 28 -0.000002 -0.000001 1.079999 0.000000 -0.000000 -0.000000
 29 0.000000 0.550000 3.200002 0.000000 -0.000000 0.000000
 30 0.000000 -0.000006 1.079999 0.000000 -0.000000 0.000000
 31 0.000000 0.000000 1.079994 0.000000 -0.000000 0.000000
 32 0.000000 0.000000 0.000000 3.141497 -0.000000 0.000000
 33 3.370000 0.000000 1.070000 0.000000 -0.000000 0.000000
 34 0.000000 0.000000 1.980000 0.000000 -0.000000 0.000000
 35 0.000000 0.000000 1.849999 0.000000 -0.000000 0.000000
 36 0.000000 2.900000 2.400000 -1.570701 0.000000 0.000000
 37 -3.370000 0.000000 1.070000 0.000000 -0.000000 0.000000
 38 0.000000 0.000000 1.980000 0.000000 -0.000000 0.000000
 39 0.000000 0.000000 1.849999 0.000000 -0.000000 0.000000
 40 0.000000 2.900000 2.400000 -1.570701 0.000000 0.000000
 41 2.980001 5.160001 -2.450003 0.348981 -0.000000 2.617930
 42 5.960000 0.000000 -2.449999 0.348787 0.000078 1.570741
 43 2.980000 -5.159997 -2.449998 0.348981 -0.000000 0.523567
 44 -2.980001 5.160001 -2.450003 0.348981 0.000000 -2.617930
 45 -5.960000 0.000000 -2.449999 0.348787 -0.000078 -1.570741
 46 -2.980000 -5.159997 -2.449998 0.348981 -0.000000 -0.523567
 47 0.000000 0.000000 0.000000 0.000000 -0.000000 0.000000
end
triangles
mnt_body_m.png
 47 2.077296 -2.277727 17.952286 0.175981 -0.143374 0.973897 0.171753 0.856079 1 6 1.000000
 47 2.189817 -2.277162 17.930965 0.385964 -0.352156 0.852653 0.173706 0.843262 1 6 1.000000
 47 2.265680 -2.178654 17.931461 0.507209 -0.394464 0.766249 0.176514 0.846558 1 6 1.000000
mnt_body_m.png
 47 2.189817 -2.277162 17.930965 0.385964 -0.352156 0.852653 0.173706 0.843262 1 6 1.000000
 47 2.254192 -2.276006 17.880156 0.658102 -0.591525 0.465832 0.175049 0.833496 1 6 1.000000
 47 2.265680 -2.178654 17.931461 0.507209 -0.394464 0.766249 0.176514 0.846558 1 6 1.000000
mnt_body_m.png
 47 2.265680 -2.178654 17.931461 0.507209 -0.394464 0.766249 0.176514 0.846558 1 6 1.000000
 47 2.254192 -2.276006 17.880156 0.658102 -0.591525 0.465832 0.175049 0.833496 1 6 1.000000
 47 2.348067 -2.177176 17.866432 0.658924 -0.555451 0.507241 0.178345 0.833496 1 6 1.000000
mnt_body_m.png
 47 2.254192 -2.276006 17.880156 0.658102 -0.591525 0.465832 0.175049 0.833496 1 6 1.000000
 47 2.209638 -2.336864 17.835070 0.686078 -0.723963 0.071929 0.173828 0.823730 1 6 1.000000
 47 2.348067 -2.177176 17.866432 0.658924 -0.555451 0.507241 0.178345 0.833496 1 6 1.000000
mnt_body_m.png
 47 2.348067 -2.177176 17.866432 0.658924 -0.555451 0.507241 0.178345 0.833496 1 6 1.000000
 47 2.209638 -2.336864 17.835070 0.686078 -0.723963 0.071929 0.173828 0.823730 1 6 1.000000
 47 2.291046 -2.255062 17.808731 0.723426 -0.678008 0.130233 0.176636 0.820557 1 6 1.000000
mnt_body_m.png
 47 2.209638 -2.336864 17.835070 0.686078 -0.723963 0.071929 0.173828 0.823730 1 6 1.000000
 47 2.075222 -2.454999 17.802046 0.595665 -0.779852 -0.192393 0.170166 0.816528 1 6 1.000000
 47 2.291046 -2.255062 17.808731 0.723426 -0.678008 0.130233 0.176636 0.820557 1 6 1.000000
mnt_body_m.png
 47 2.291046 -2.255062 17.808731 0.723426 -0.678008 0.130233 0.176636 0.820557 1 6 1.000000
 47 2.075222 -2.454999 17.802046 0.595665 -0.779852 -0.192393 0.170166 0.816528 1 6 1.000000
 47 2.119021 -2.406251 17.766468 0.644890 -0.734244 -0.212140 0.171875 0.810913 1 6 1.000000
mnt_body_m.png
 47 2.075222 -2.454999 17.802046 0.595665 -0.779852 -0.192393 0.170166 0.816528 1 6 1.000000
 47 1.877311 -2.583120 17.801601 0.453926 -0.827830 -0.329619 0.165283 0.813965 1 6 1.000000
 47 2.119021 -2.406251 17.766468 0.644890 -0.734244 -0.212140 0.171875 0.810913 1 6 1.000000
mnt_body_m.png
 47 2.119021 -2.406251 17.766468 0.644890 -0.734244 -0.212140 0.171875 0.810913 1 6 1.000000
 47 1.877311 -2.583120 17.801601 0.453926 -0.827830 -0.329619 0.165283 0.813965 1 6 1.000000
 47 1.865734 -2.570220 17.765900 0.428093 -0.796669 -0.426678 0.165405 0.807495 1 6 1.000000
mnt_body_m.png
 47 1.877311 -2.583120 17.801601 0.453926 -0.827830 -0.329619 0.165283 0.813965 1 6 1.000000
 47 1.668691 -2.686436 17.823416 0.353187 -0.920520 -0.167037 0.160400 0.816528 1 6 1.000000
 47 1.865734 -2.570220 17.765900 0.428093 -0.796669 -0.426678 0.165405 0.807495 1 6 1.000000
mnt_body_m.png
 47 1.865734 -2.570220 17.765900 0.428093 -0.796669 -0.426678 0.165405 0.807495 1 6 1.000000
 47 1.668691 -2.686436 17.823416 0.353187 -0.920520 -0.167037 0.160400 0.816528 1 6 1.000000
 47 1.598742 -2.702444 17.793818 0.287429 -0.942699 -0.169418 0.158813 0.810913 1 6 1.000000
mnt_body_m.png
 47 1.668691 -2.686436 17.823416 0.353187 -0.920520 -0.167037 0.160400 0.816528 1 6 1.000000
 47 1.505506 -2.737724 17.872084 0.277574 -0.953060 0.120953 0.156860 0.823608 1 6 1.000000
 47 1.598742 -2.702444 17.793818 0.287429 -0.942699 -0.169418 0.158813 0.810913 1 6 1.000000
mnt_body_m.png
 47 1.598742 -2.702444 17.793818 0.287429 -0.942699 -0.169418 0.158813 0.810913 1 6 1.000000
 47 1.505506 -2.737724 17.872084 0.277574 -0.953060 0.120953 0.156860 0.823608 1 6 1.000000
 47 1.389897 -2.768083 17.856100 0.223644 -0.954781 0.195902 0.154053 0.820435 1 6 1.000000
mnt_body_m.png
 47 1.505506 -2.737724 17.872084 0.277574 -0.953060 0.120953 0.156860 0.823608 1 6 1.000000
 47 1.441130 -2.738879 17.922895 0.206019 -0.829088 0.519778 0.155518 0.833374 1 6 1.000000
 47 1.389897 -2.768083 17.856100 0.223644 -0.954781 0.195902 0.154053 0.820435 1 6 1.000000
mnt_body_m.png
 47 1.389897 -2.768083 17.856100 0.223644 -0.954781 0.195902 0.154053 0.820435 1 6 1.000000
 47 1.441130 -2.738879 17.922895 0.206019 -0.829088 0.519778 0.155518 0.833374 1 6 1.000000
 47 1.307509 -2.769561 17.921131 0.181130 -0.820057 0.542861 0.152344 0.833374 1 6 1.000000
mnt_body_m.png
 47 1.441130 -2.738879 17.922895 0.206019 -0.829088 0.519778 0.155518 0.833374 1 6 1.000000
 47 1.485685 -2.678022 17.967983 0.171183 -0.460404 0.871048 0.156860 0.843140 1 6 1.000000
 47 1.307509 -2.769561 17.921131 0.181130 -0.820057 0.542861 0.152344 0.833374 1 6 1.000000
mnt_body_m.png
 47 1.307509 -2.769561 17.921131 0.181130 -0.820057 0.542861 0.152344 0.833374 1 6 1.000000
 47 1.485685 -2.678022 17.967983 0.171183 -0.460404 0.871048 0.156860 0.843140 1 6 1.000000
 47 1.364531 -2.691676 17.978832 0.137460 -0.584043 0.799999 0.154053 0.846436 1 6 1.000000
mnt_body_m.png
 47 1.485685 -2.678022 17.967983 0.171183 -0.460404 0.871048 0.156860 0.843140 1 6 1.000000
 47 1.636088 -2.586010 17.968611 0.162087 -0.246481 0.955497 0.160400 0.850342 1 6 1.000000
 47 1.364531 -2.691676 17.978832 0.137460 -0.584043 0.799999 0.154053 0.846436 1 6 1.000000
mnt_body_m.png
 47 1.364531 -2.691676 17.978832 0.137460 -0.584043 0.799999 0.154053 0.846436 1 6 1.000000
 47 1.636088 -2.586010 17.968611 0.162087 -0.246481 0.955497 0.160400 0.850342 1 6 1.000000
 47 1.557017 -2.573920 17.979637 0.109782 -0.174442 0.978528 0.158813 0.855957 1 6 1.000000
mnt_body_m.png
 47 1.636088 -2.586010 17.968611 0.162087 -0.246481 0.955497 0.160400 0.850342 1 6 1.000000
 47 1.839639 -2.467123 17.961922 0.176755 -0.221683 0.958965 0.165283 0.853027 1 6 1.000000
 47 1.557017 -2.573920 17.979637 0.109782 -0.174442 0.978528 0.158813 0.855957 1 6 1.000000
mnt_body_m.png
 47 1.557017 -2.573920 17.979637 0.109782 -0.174442 0.978528 0.158813 0.855957 1 6 1.000000
 47 1.839639 -2.467123 17.961922 0.176755 -0.221683 0.958965 0.165283 0.853027 1 6 1.000000
 47 1.817521 -2.421766 17.971075 0.129321 -0.135184 0.982345 0.165283 0.859497 1 6 1.000000
mnt_body_m.png
 47 1.839639 -2.467123 17.961922 0.176755 -0.221683 0.958965 0.165283 0.853027 1 6 1.000000
 47 2.042619 -2.354574 17.947239 0.207722 -0.225181 0.951917 0.170166 0.850464 1 6 1.000000
 47 1.817521 -2.421766 17.971075 0.129321 -0.135184 0.982345 0.165283 0.859497 1 6 1.000000
mnt_body_m.png
 47 1.817521 -2.421766 17.971075 0.129321 -0.135184 0.982345 0.165283 0.859497 1 6 1.000000
 47 2.042619 -2.354574 17.947239 0.207722 -0.225181 0.951917 0.170166 0.850464 1 6 1.000000
 47 2.077296 -2.277727 17.952286 0.175981 -0.143374 0.973897 0.171753 0.856079 1 6 1.000000
mnt_body_m.png
 47 2.077296 -2.277727 17.952286 0.175981 -0.143374 0.973897 0.171753 0.856079 1 6 1.000000
 47 2.042619 -2.354574 17.947239 0.207722 -0.225181 0.951917 0.170166 0.850464 1 6 1.000000
 47 2.189817 -2.277162 17.930965 0.385964 -0.352156 0.852653 0.173706 0.843262 1 6 1.000000
mnt_body_m.png
 47 2.042619 -2.354574 17.947239 0.207722 -0.225181 0.951917 0.170166 0.850464 1 6 1.000000
 47 2.093039 -2.383723 17.922071 0.397862 -0.508181 0.763844 0.170898 0.839966 1 6 1.000000
 47 2.189817 -2.277162 17.930965 0.385964 -0.352156 0.852653 0.173706 0.843262 1 6 1.000000
mnt_body_m.png
 47 2.093039 -2.383723 17.922071 0.397862 -0.508181 0.763844 0.170898 0.839966 1 6 1.000000
 47 2.136098 -2.382951 17.888084 0.576978 -0.651389 0.492736 0.171875 0.833496 1 6 1.000000
 47 2.189817 -2.277162 17.930965 0.385964 -0.352156 0.852653 0.173706 0.843262 1 6 1.000000
mnt_body_m.png
 47 2.189817 -2.277162 17.930965 0.385964 -0.352156 0.852653 0.173706 0.843262 1 6 1.000000
 47 2.136098 -2.382951 17.888084 0.576978 -0.651389 0.492736 0.171875 0.833496 1 6 1.000000
 47 2.254192 -2.276006 17.880156 0.658102 -0.591525 0.465832 0.175049 0.833496 1 6 1.000000
mnt_body_m.png
 47 2.136098 -2.382951 17.888084 0.576978 -0.651389 0.492736 0.171875 0.833496 1 6 1.000000
 47 2.106297 -2.423657 17.857927 0.595375 -0.751236 0.284910 0.170898 0.827026 1 6 1.000000
 47 2.254192 -2.276006 17.880156 0.658102 -0.591525 0.465832 0.175049 0.833496 1 6 1.000000
mnt_body_m.png
 47 2.254192 -2.276006 17.880156 0.658102 -0.591525 0.465832 0.175049 0.833496 1 6 1.000000
 47 2.106297 -2.423657 17.857927 0.595375 -0.751236 0.284910 0.170898 0.827026 1 6 1.000000
 47 2.209638 -2.336864 17.835070 0.686078 -0.723963 0.071929 0.173828 0.823730 1 6 1.000000
mnt_body_m.png
 47 2.106297 -2.423657 17.857927 0.595375 -0.751236 0.284910 0.170898 0.827026 1 6 1.000000
 47 2.016387 -2.502677 17.835838 0.558127 -0.814426 0.158758 0.168579 0.822266 1 6 1.000000
 47 2.209638 -2.336864 17.835070 0.686078 -0.723963 0.071929 0.173828 0.823730 1 6 1.000000
mnt_body_m.png
 47 2.209638 -2.336864 17.835070 0.686078 -0.723963 0.071929 0.173828 0.823730 1 6 1.000000
 47 2.016387 -2.502677 17.835838 0.558127 -0.814426 0.158758 0.168579 0.822266 1 6 1.000000
 47 2.075222 -2.454999 17.802046 0.595665 -0.779852 -0.192393 0.170166 0.816528 1 6 1.000000
mnt_body_m.png
 47 2.016387 -2.502677 17.835838 0.558127 -0.814426 0.158758 0.168579 0.822266 1 6 1.000000
 47 1.884007 -2.588375 17.835541 0.495761 -0.859974 0.121104 0.165283 0.820435 1 6 1.000000
 47 2.075222 -2.454999 17.802046 0.595665 -0.779852 -0.192393 0.170166 0.816528 1 6 1.000000
mnt_body_m.png
 47 2.075222 -2.454999 17.802046 0.595665 -0.779852 -0.192393 0.170166 0.816528 1 6 1.000000
 47 1.884007 -2.588375 17.835541 0.495761 -0.859974 0.121104 0.165283 0.820435 1 6 1.000000
 47 1.877311 -2.583120 17.801601 0.453926 -0.827830 -0.329619 0.165283 0.813965 1 6 1.000000
mnt_body_m.png
 47 1.884007 -2.588375 17.835541 0.495761 -0.859974 0.121104 0.165283 0.820435 1 6 1.000000
 47 1.744463 -2.657482 17.850132 0.428412 -0.886777 0.173467 0.162109 0.822144 1 6 1.000000
 47 1.877311 -2.583120 17.801601 0.453926 -0.827830 -0.329619 0.165283 0.813965 1 6 1.000000
mnt_body_m.png
 47 1.877311 -2.583120 17.801601 0.453926 -0.827830 -0.329619 0.165283 0.813965 1 6 1.000000
 47 1.744463 -2.657482 17.850132 0.428412 -0.886777 0.173467 0.162109 0.822144 1 6 1.000000
 47 1.668691 -2.686436 17.823416 0.353187 -0.920520 -0.167037 0.160400 0.816528 1 6 1.000000
mnt_body_m.png
 47 1.744463 -2.657482 17.850132 0.428412 -0.886777 0.173467 0.162109 0.822144 1 6 1.000000
 47 1.635311 -2.691788 17.882687 0.363018 -0.878593 0.310309 0.159668 0.826904 1 6 1.000000
 47 1.668691 -2.686436 17.823416 0.353187 -0.920520 -0.167037 0.160400 0.816528 1 6 1.000000
mnt_body_m.png
 47 1.668691 -2.686436 17.823416 0.353187 -0.920520 -0.167037 0.160400 0.816528 1 6 1.000000
 47 1.635311 -2.691788 17.882687 0.363018 -0.878593 0.310309 0.159668 0.826904 1 6 1.000000
 47 1.505506 -2.737724 17.872084 0.277574 -0.953060 0.120953 0.156860 0.823608 1 6 1.000000
mnt_body_m.png
 47 1.635311 -2.691788 17.882687 0.363018 -0.878593 0.310309 0.159668 0.826904 1 6 1.000000
 47 1.592251 -2.692561 17.916674 0.301395 -0.794255 0.527560 0.158813 0.833374 1 6 1.000000
 47 1.505506 -2.737724 17.872084 0.277574 -0.953060 0.120953 0.156860 0.823608 1 6 1.000000
mnt_body_m.png
 47 1.505506 -2.737724 17.872084 0.277574 -0.953060 0.120953 0.156860 0.823608 1 6 1.000000
 47 1.592251 -2.692561 17.916674 0.301395 -0.794255 0.527560 0.158813 0.833374 1 6 1.000000
 47 1.441130 -2.738879 17.922895 0.206019 -0.829088 0.519778 0.155518 0.833374 1 6 1.000000
mnt_body_m.png
 47 1.592251 -2.692561 17.916674 0.301395 -0.794255 0.527560 0.158813 0.833374 1 6 1.000000
 47 1.622053 -2.651854 17.946831 0.294683 -0.561465 0.773252 0.159668 0.839966 1 6 1.000000
 47 1.441130 -2.738879 17.922895 0.206019 -0.829088 0.519778 0.155518 0.833374 1 6 1.000000
mnt_body_m.png
 47 1.441130 -2.738879 17.922895 0.206019 -0.829088 0.519778 0.155518 0.833374 1 6 1.000000
 47 1.622053 -2.651854 17.946831 0.294683 -0.561465 0.773252 0.159668 0.839966 1 6 1.000000
 47 1.485685 -2.678022 17.967983 0.171183 -0.460404 0.871048 0.156860 0.843140 1 6 1.000000
mnt_body_m.png
 47 1.622053 -2.651854 17.946831 0.294683 -0.561465 0.773252 0.159668 0.839966 1 6 1.000000
 47 1.722656 -2.590309 17.947252 0.301421 -0.480038 0.823838 0.161987 0.844727 1 6 1.000000
 47 1.485685 -2.678022 17.967983 0.171183 -0.460404 0.871048 0.156860 0.843140 1 6 1.000000
mnt_body_m.png
 47 1.485685 -2.678022 17.967983 0.171183 -0.460404 0.871048 0.156860 0.843140 1 6 1.000000
 47 1.722656 -2.590309 17.947252 0.301421 -0.480038 0.823838 0.161987 0.844727 1 6 1.000000
 47 1.636088 -2.586010 17.968611 0.162087 -0.246481 0.955497 0.160400 0.850342 1 6 1.000000
mnt_body_m.png
 47 1.722656 -2.590309 17.947252 0.301421 -0.480038 0.823838 0.161987 0.844727 1 6 1.000000
 47 1.858809 -2.510786 17.942778 0.309164 -0.466960 0.828472 0.165283 0.846436 1 6 1.000000
 47 1.636088 -2.586010 17.968611 0.162087 -0.246481 0.955497 0.160400 0.850342 1 6 1.000000
mnt_body_m.png
 47 1.636088 -2.586010 17.968611 0.162087 -0.246481 0.955497 0.160400 0.850342 1 6 1.000000
 47 1.858809 -2.510786 17.942778 0.309164 -0.466960 0.828472 0.165283 0.846436 1 6 1.000000
 47 1.839639 -2.467123 17.961922 0.176755 -0.221683 0.958965 0.165283 0.853027 1 6 1.000000
mnt_body_m.png
 47 1.858809 -2.510786 17.942778 0.309164 -0.466960 0.828472 0.165283 0.846436 1 6 1.000000
 47 1.994580 -2.435503 17.932957 0.325264 -0.468242 0.821555 0.168579 0.844727 1 6 1.000000
 47 1.839639 -2.467123 17.961922 0.176755 -0.221683 0.958965 0.165283 0.853027 1 6 1.000000
mnt_body_m.png
 47 1.839639 -2.467123 17.961922 0.176755 -0.221683 0.958965 0.165283 0.853027 1 6 1.000000
 47 1.994580 -2.435503 17.932957 0.325264 -0.468242 0.821555 0.168579 0.844727 1 6 1.000000
 47 2.042619 -2.354574 17.947239 0.207722 -0.225181 0.951917 0.170166 0.850464 1 6 1.000000
mnt_body_m.png
 47 2.042619 -2.354574 17.947239 0.207722 -0.225181 0.951917 0.170166 0.850464 1 6 1.000000
 47 1.994580 -2.435503 17.932957 0.325264 -0.468242 0.821555 0.168579 0.844727 1 6 1.000000
 47 2.093039 -2.383723 17.922071 0.397862 -0.508181 0.763844 0.170898 0.839966 1 6 1.000000
mnt_body_m.png
 47 1.994580 -2.435503 17.932957 0.325264 -0.468242 0.821555 0.168579 0.844727 1 6 1.000000
 47 1.878312 -2.556377 17.891899 0.426087 -0.691773 0.583009 0.165283 0.833496 1 6 1.000000
 47 2.093039 -2.383723 17.922071 0.397862 -0.508181 0.763844 0.170898 0.839966 1 6 1.000000
mnt_body_m.png
 47 2.093039 -2.383723 17.922071 0.397862 -0.508181 0.763844 0.170898 0.839966 1 6 1.000000
 47 1.878312 -2.556377 17.891899 0.426087 -0.691773 0.583009 0.165283 0.833496 1 6 1.000000
 47 2.136098 -2.382951 17.888084 0.576978 -0.651389 0.492736 0.171875 0.833496 1 6 1.000000
mnt_body_m.png
 47 2.136098 -2.382951 17.888084 0.576978 -0.651389 0.492736 0.171875 0.833496 1 6 1.000000
 47 1.878312 -2.556377 17.891899 0.426087 -0.691773 0.583009 0.165283 0.833496 1 6 1.000000
 47 2.106297 -2.423657 17.857927 0.595375 -0.751236 0.284910 0.170898 0.827026 1 6 1.000000
mnt_body_m.png
 47 2.106297 -2.423657 17.857927 0.595375 -0.751236 0.284910 0.170898 0.827026 1 6 1.000000
 47 1.878312 -2.556377 17.891899 0.426087 -0.691773 0.583009 0.165283 0.833496 1 6 1.000000
 47 2.016387 -2.502677 17.835838 0.558127 -0.814426 0.158758 0.168579 0.822266 1 6 1.000000
mnt_body_m.png
 47 2.016387 -2.502677 17.835838 0.558127 -0.814426 0.158758 0.168579 0.822266 1 6 1.000000
 47 1.878312 -2.556377 17.891899 0.426087 -0.691773 0.583009 0.165283 0.833496 1 6 1.000000
 47 1.884007 -2.588375 17.835541 0.495761 -0.859974 0.121104 0.165283 0.820435 1 6 1.000000
mnt_body_m.png
 47 1.884007 -2.588375 17.835541 0.495761 -0.859974 0.121104 0.165283 0.820435 1 6 1.000000
 47 1.878312 -2.556377 17.891899 0.426087 -0.691773 0.583009 0.165283 0.833496 1 6 1.000000
 47 1.744463 -2.657482 17.850132 0.428412 -0.886777 0.173467 0.162109 0.822144 1 6 1.000000
mnt_body_m.png
 47 1.744463 -2.657482 17.850132 0.428412 -0.886777 0.173467 0.162109 0.822144 1 6 1.000000
 47 1.878312 -2.556377 17.891899 0.426087 -0.691773 0.583009 0.165283 0.833496 1 6 1.000000
 47 1.635311 -2.691788 17.882687 0.363018 -0.878593 0.310309 0.159668 0.826904 1 6 1.000000
mnt_body_m.png
 47 1.635311 -2.691788 17.882687 0.363018 -0.878593 0.310309 0.159668 0.826904 1 6 1.000000
 47 1.878312 -2.556377 17.891899 0.426087 -0.691773 0.583009 0.165283 0.833496 1 6 1.000000
 47 1.592251 -2.692561 17.916674 0.301395 -0.794255 0.527560 0.158813 0.833374 1 6 1.000000
mnt_body_m.png
 47 1.592251 -2.692561 17.916674 0.301395 -0.794255 0.527560 0.158813 0.833374 1 6 1.000000
 47 1.878312 -2.556377 17.891899 0.426087 -0.691773 0.583009 0.165283 0.833496 1 6 1.000000
 47 1.622053 -2.651854 17.946831 0.294683 -0.561465 0.773252 0.159668 0.839966 1 6 1.000000
mnt_body_m.png
 47 1.622053 -2.651854 17.946831 0.294683 -0.561465 0.773252 0.159668 0.839966 1 6 1.000000
 47 1.878312 -2.556377 17.891899 0.426087 -0.691773 0.583009 0.165283 0.833496 1 6 1.000000
 47 1.722656 -2.590309 17.947252 0.301421 -0.480038 0.823838 0.161987 0.844727 1 6 1.000000
mnt_body_m.png
 47 1.722656 -2.590309 17.947252 0.301421 -0.480038 0.823838 0.161987 0.844727 1 6 1.000000
 47 1.878312 -2.556377 17.891899 0.426087 -0.691773 0.583009 0.165283 0.833496 1 6 1.000000
 47 1.858809 -2.510786 17.942778 0.309164 -0.466960 0.828472 0.165283 0.846436 1 6 1.000000
mnt_body_m.png
 47 1.878312 -2.556377 17.891899 0.426087 -0.691773 0.583009 0.165283 0.833496 1 6 1.000000
 47 1.994580 -2.435503 17.932957 0.325264 -0.468242 0.821555 0.168579 0.844727 1 6 1.000000
 47 1.858809 -2.510786 17.942778 0.309164 -0.466960 0.828472 0.165283 0.846436 1 6 1.000000
mnt_body_m.png
 47 -2.265680 -2.178654 17.931461 -0.507209 -0.394464 0.766249 0.154053 0.846558 1 6 1.000000
 47 -2.189817 -2.277162 17.930965 -0.385964 -0.352156 0.852653 0.156860 0.843262 1 6 1.000000
 47 -2.077296 -2.277727 17.952286 -0.175981 -0.143374 0.973897 0.158813 0.856079 1 6 1.000000
mnt_body_m.png
 47 -2.189817 -2.277162 17.930965 -0.385964 -0.352156 0.852653 0.156860 0.843262 1 6 1.000000
 47 -2.042619 -2.354574 17.947239 -0.207722 -0.225181 0.951917 0.160400 0.850464 1 6 1.000000
 47 -2.077296 -2.277727 17.952286 -0.175981 -0.143374 0.973897 0.158813 0.856079 1 6 1.000000
mnt_body_m.png
 47 -2.077296 -2.277727 17.952286 -0.175981 -0.143374 0.973897 0.158813 0.856079 1 6 1.000000
 47 -2.042619 -2.354574 17.947239 -0.207722 -0.225181 0.951917 0.160400 0.850464 1 6 1.000000
 47 -1.817521 -2.421766 17.971075 -0.129322 -0.135184 0.982345 0.165405 0.859497 1 6 1.000000
mnt_body_m.png
 47 -2.042619 -2.354574 17.947239 -0.207722 -0.225181 0.951917 0.160400 0.850464 1 6 1.000000
 47 -1.839639 -2.467123 17.961922 -0.176755 -0.221683 0.958965 0.165283 0.853027 1 6 1.000000
 47 -1.817521 -2.421766 17.971075 -0.129322 -0.135184 0.982345 0.165405 0.859497 1 6 1.000000
mnt_body_m.png
 47 -1.817521 -2.421766 17.971075 -0.129322 -0.135184 0.982345 0.165405 0.859497 1 6 1.000000
 47 -1.839639 -2.467123 17.961922 -0.176755 -0.221683 0.958965 0.165283 0.853027 1 6 1.000000
 47 -1.557017 -2.573920 17.979637 -0.109782 -0.174442 0.978528 0.171875 0.855957 1 6 1.000000
mnt_body_m.png
 47 -1.839639 -2.467123 17.961922 -0.176755 -0.221683 0.958965 0.165283 0.853027 1 6 1.000000
 47 -1.636088 -2.586010 17.968611 -0.162087 -0.246481 0.955497 0.170166 0.850342 1 6 1.000000
 47 -1.557017 -2.573920 17.979637 -0.109782 -0.174442 0.978528 0.171875 0.855957 1 6 1.000000
mnt_body_m.png
 47 -1.557017 -2.573920 17.979637 -0.109782 -0.174442 0.978528 0.171875 0.855957 1 6 1.000000
 47 -1.636088 -2.586010 17.968611 -0.162087 -0.246481 0.955497 0.170166 0.850342 1 6 1.000000
 47 -1.364531 -2.691676 17.978832 -0.137460 -0.584042 0.799999 0.176636 0.846436 1 6 1.000000
mnt_body_m.png
 47 -1.636088 -2.586010 17.968611 -0.162087 -0.246481 0.955497 0.170166 0.850342 1 6 1.000000
 47 -1.485685 -2.678022 17.967983 -0.171183 -0.460404 0.871048 0.173828 0.843140 1 6 1.000000
 47 -1.364531 -2.691676 17.978832 -0.137460 -0.584042 0.799999 0.176636 0.846436 1 6 1.000000
mnt_body_m.png
 47 -1.364531 -2.691676 17.978832 -0.137460 -0.584042 0.799999 0.176636 0.846436 1 6 1.000000
 47 -1.485685 -2.678022 17.967983 -0.171183 -0.460404 0.871048 0.173828 0.843140 1 6 1.000000
 47 -1.307509 -2.769561 17.921131 -0.181130 -0.820057 0.542861 0.178345 0.833374 1 6 1.000000
mnt_body_m.png
 47 -1.485685 -2.678022 17.967983 -0.171183 -0.460404 0.871048 0.173828 0.843140 1 6 1.000000
 47 -1.441130 -2.738879 17.922895 -0.206019 -0.829088 0.519778 0.175049 0.833374 1 6 1.000000
 47 -1.307509 -2.769561 17.921131 -0.181130 -0.820057 0.542861 0.178345 0.833374 1 6 1.000000
mnt_body_m.png
 47 -1.307509 -2.769561 17.921131 -0.181130 -0.820057 0.542861 0.178345 0.833374 1 6 1.000000
 47 -1.441130 -2.738879 17.922895 -0.206019 -0.829088 0.519778 0.175049 0.833374 1 6 1.000000
 47 -1.389897 -2.768083 17.856100 -0.223644 -0.954781 0.195902 0.176514 0.820435 1 6 1.000000
mnt_body_m.png
 47 -1.441130 -2.738879 17.922895 -0.206019 -0.829088 0.519778 0.175049 0.833374 1 6 1.000000
 47 -1.505506 -2.737724 17.872084 -0.277574 -0.953060 0.120953 0.173706 0.823608 1 6 1.000000
 47 -1.389897 -2.768083 17.856100 -0.223644 -0.954781 0.195902 0.176514 0.820435 1 6 1.000000
mnt_body_m.png
 47 -1.389897 -2.768083 17.856100 -0.223644 -0.954781 0.195902 0.176514 0.820435 1 6 1.000000
 47 -1.505506 -2.737724 17.872084 -0.277574 -0.953060 0.120953 0.173706 0.823608 1 6 1.000000
 47 -1.598742 -2.702444 17.793818 -0.287429 -0.942699 -0.169418 0.171753 0.810913 1 6 1.000000
mnt_body_m.png
 47 -1.505506 -2.737724 17.872084 -0.277574 -0.953060 0.120953 0.173706 0.823608 1 6 1.000000
 47 -1.668691 -2.686436 17.823416 -0.353187 -0.920520 -0.167037 0.170166 0.816528 1 6 1.000000
 47 -1.598742 -2.702444 17.793818 -0.287429 -0.942699 -0.169418 0.171753 0.810913 1 6 1.000000
mnt_body_m.png
 47 -1.598742 -2.702444 17.793818 -0.287429 -0.942699 -0.169418 0.171753 0.810913 1 6 1.000000
 47 -1.668691 -2.686436 17.823416 -0.353187 -0.920520 -0.167037 0.170166 0.816528 1 6 1.000000
 47 -1.865734 -2.570220 17.765900 -0.428093 -0.796669 -0.426678 0.165283 0.807495 1 6 1.000000
mnt_body_m.png
 47 -1.668691 -2.686436 17.823416 -0.353187 -0.920520 -0.167037 0.170166 0.816528 1 6 1.000000
 47 -1.877311 -2.583120 17.801601 -0.453926 -0.827830 -0.329619 0.165283 0.813965 1 6 1.000000
 47 -1.865734 -2.570220 17.765900 -0.428093 -0.796669 -0.426678 0.165283 0.807495 1 6 1.000000
mnt_body_m.png
 47 -1.865734 -2.570220 17.765900 -0.428093 -0.796669 -0.426678 0.165283 0.807495 1 6 1.000000
 47 -1.877311 -2.583120 17.801601 -0.453926 -0.827830 -0.329619 0.165283 0.813965 1 6 1.000000
 47 -2.119021 -2.406251 17.766468 -0.644890 -0.734244 -0.212140 0.158813 0.810913 1 6 1.000000
mnt_body_m.png
 47 -1.877311 -2.583120 17.801601 -0.453926 -0.827830 -0.329619 0.165283 0.813965 1 6 1.000000
 47 -2.075222 -2.454999 17.802046 -0.595665 -0.779852 -0.192393 0.160400 0.816528 1 6 1.000000
 47 -2.119021 -2.406251 17.766468 -0.644890 -0.734244 -0.212140 0.158813 0.810913 1 6 1.000000
mnt_body_m.png
 47 -2.119021 -2.406251 17.766468 -0.644890 -0.734244 -0.212140 0.158813 0.810913 1 6 1.000000
 47 -2.075222 -2.454999 17.802046 -0.595665 -0.779852 -0.192393 0.160400 0.816528 1 6 1.000000
 47 -2.291046 -2.255062 17.808731 -0.723426 -0.678008 0.130233 0.154053 0.820557 1 6 1.000000
mnt_body_m.png
 47 -2.075222 -2.454999 17.802046 -0.595665 -0.779852 -0.192393 0.160400 0.816528 1 6 1.000000
 47 -2.209638 -2.336864 17.835070 -0.686078 -0.723963 0.071929 0.156860 0.823730 1 6 1.000000
 47 -2.291046 -2.255062 17.808731 -0.723426 -0.678008 0.130233 0.154053 0.820557 1 6 1.000000
mnt_body_m.png
 47 -2.291046 -2.255062 17.808731 -0.723426 -0.678008 0.130233 0.154053 0.820557 1 6 1.000000
 47 -2.209638 -2.336864 17.835070 -0.686078 -0.723963 0.071929 0.156860 0.823730 1 6 1.000000
 47 -2.348067 -2.177176 17.866432 -0.658924 -0.555451 0.507241 0.152344 0.833496 1 6 1.000000
mnt_body_m.png
 47 -2.209638 -2.336864 17.835070 -0.686078 -0.723963 0.071929 0.156860 0.823730 1 6 1.000000
 47 -2.254192 -2.276006 17.880156 -0.658102 -0.591525 0.465832 0.155518 0.833496 1 6 1.000000
 47 -2.348067 -2.177176 17.866432 -0.658924 -0.555451 0.507241 0.152344 0.833496 1 6 1.000000
mnt_body_m.png
 47 -2.348067 -2.177176 17.866432 -0.658924 -0.555451 0.507241 0.152344 0.833496 1 6 1.000000
 47 -2.254192 -2.276006 17.880156 -0.658102 -0.591525 0.465832 0.155518 0.833496 1 6 1.000000
 47 -2.265680 -2.178654 17.931461 -0.507209 -0.394464 0.766249 0.154053 0.846558 1 6 1.000000
mnt_body_m.png
 47 -2.265680 -2.178654 17.931461 -0.507209 -0.394464 0.766249 0.154053 0.846558 1 6 1.000000
 47 -2.254192 -2.276006 17.880156 -0.658102 -0.591525 0.465832 0.155518 0.833496 1 6 1.000000
 47 -2.189817 -2.277162 17.930965 -0.385964 -0.352156 0.852653 0.156860 0.843262 1 6 1.000000
mnt_body_m.png
 47 -2.254192 -2.276006 17.880156 -0.658102 -0.591525 0.465832 0.155518 0.833496 1 6 1.000000
 47 -2.136098 -2.382951 17.888084 -0.576978 -0.651389 0.492736 0.158813 0.833496 1 6 1.000000
 47 -2.189817 -2.277162 17.930965 -0.385964 -0.352156 0.852653 0.156860 0.843262 1 6 1.000000
mnt_body_m.png
 47 -2.136098 -2.382951 17.888084 -0.576978 -0.651389 0.492736 0.158813 0.833496 1 6 1.000000
 47 -2.093039 -2.383723 17.922071 -0.397862 -0.508181 0.763844 0.159668 0.839966 1 6 1.000000
 47 -2.189817 -2.277162 17.930965 -0.385964 -0.352156 0.852653 0.156860 0.843262 1 6 1.000000
mnt_body_m.png
 47 -2.189817 -2.277162 17.930965 -0.385964 -0.352156 0.852653 0.156860 0.843262 1 6 1.000000
 47 -2.093039 -2.383723 17.922071 -0.397862 -0.508181 0.763844 0.159668 0.839966 1 6 1.000000
 47 -2.042619 -2.354574 17.947239 -0.207722 -0.225181 0.951917 0.160400 0.850464 1 6 1.000000
mnt_body_m.png
 47 -2.093039 -2.383723 17.922071 -0.397862 -0.508181 0.763844 0.159668 0.839966 1 6 1.000000
 47 -1.994580 -2.435503 17.932957 -0.325264 -0.468242 0.821555 0.162109 0.844727 1 6 1.000000
 47 -2.042619 -2.354574 17.947239 -0.207722 -0.225181 0.951917 0.160400 0.850464 1 6 1.000000
mnt_body_m.png
 47 -2.042619 -2.354574 17.947239 -0.207722 -0.225181 0.951917 0.160400 0.850464 1 6 1.000000
 47 -1.994580 -2.435503 17.932957 -0.325264 -0.468242 0.821555 0.162109 0.844727 1 6 1.000000
 47 -1.839639 -2.467123 17.961922 -0.176755 -0.221683 0.958965 0.165283 0.853027 1 6 1.000000
mnt_body_m.png
 47 -1.994580 -2.435503 17.932957 -0.325264 -0.468242 0.821555 0.162109 0.844727 1 6 1.000000
 47 -1.858809 -2.510786 17.942778 -0.309164 -0.466960 0.828472 0.165283 0.846436 1 6 1.000000
 47 -1.839639 -2.467123 17.961922 -0.176755 -0.221683 0.958965 0.165283 0.853027 1 6 1.000000
mnt_body_m.png
 47 -1.839639 -2.467123 17.961922 -0.176755 -0.221683 0.958965 0.165283 0.853027 1 6 1.000000
 47 -1.858809 -2.510786 17.942778 -0.309164 -0.466960 0.828472 0.165283 0.846436 1 6 1.000000
 47 -1.636088 -2.586010 17.968611 -0.162087 -0.246481 0.955497 0.170166 0.850342 1 6 1.000000
mnt_body_m.png
 47 -1.858809 -2.510786 17.942778 -0.309164 -0.466960 0.828472 0.165283 0.846436 1 6 1.000000
 47 -1.722656 -2.590309 17.947252 -0.301421 -0.480038 0.823838 0.168579 0.844727 1 6 1.000000
 47 -1.636088 -2.586010 17.968611 -0.162087 -0.246481 0.955497 0.170166 0.850342 1 6 1.000000
mnt_body_m.png
 47 -1.636088 -2.586010 17.968611 -0.162087 -0.246481 0.955497 0.170166 0.850342 1 6 1.000000
 47 -1.722656 -2.590309 17.947252 -0.301421 -0.480038 0.823838 0.168579 0.844727 1 6 1.000000
 47 -1.485685 -2.678022 17.967983 -0.171183 -0.460404 0.871048 0.173828 0.843140 1 6 1.000000
mnt_body_m.png
 47 -1.722656 -2.590309 17.947252 -0.301421 -0.480038 0.823838 0.168579 0.844727 1 6 1.000000
 47 -1.622053 -2.651854 17.946831 -0.294683 -0.561465 0.773252 0.170898 0.839966 1 6 1.000000
 47 -1.485685 -2.678022 17.967983 -0.171183 -0.460404 0.871048 0.173828 0.843140 1 6 1.000000
mnt_body_m.png
 47 -1.485685 -2.678022 17.967983 -0.171183 -0.460404 0.871048 0.173828 0.843140 1 6 1.000000
 47 -1.622053 -2.651854 17.946831 -0.294683 -0.561465 0.773252 0.170898 0.839966 1 6 1.000000
 47 -1.441130 -2.738879 17.922895 -0.206019 -0.829088 0.519778 0.175049 0.833374 1 6 1.000000
mnt_body_m.png
 47 -1.622053 -2.651854 17.946831 -0.294683 -0.561465 0.773252 0.170898 0.839966 1 6 1.000000
 47 -1.592251 -2.692561 17.916674 -0.301395 -0.794255 0.527560 0.171875 0.833374 1 6 1.000000
 47 -1.441130 -2.738879 17.922895 -0.206019 -0.829088 0.519778 0.175049 0.833374 1 6 1.000000
mnt_body_m.png
 47 -1.441130 -2.738879 17.922895 -0.206019 -0.829088 0.519778 0.175049 0.833374 1 6 1.000000
 47 -1.592251 -2.692561 17.916674 -0.301395 -0.794255 0.527560 0.171875 0.833374 1 6 1.000000
 47 -1.505506 -2.737724 17.872084 -0.277574 -0.953060 0.120953 0.173706 0.823608 1 6 1.000000
mnt_body_m.png
 47 -1.592251 -2.692561 17.916674 -0.301395 -0.794255 0.527560 0.171875 0.833374 1 6 1.000000
 47 -1.635311 -2.691788 17.882687 -0.363018 -0.878593 0.310309 0.170898 0.826904 1 6 1.000000
 47 -1.505506 -2.737724 17.872084 -0.277574 -0.953060 0.120953 0.173706 0.823608 1 6 1.000000
mnt_body_m.png
 47 -1.505506 -2.737724 17.872084 -0.277574 -0.953060 0.120953 0.173706 0.823608 1 6 1.000000
 47 -1.635311 -2.691788 17.882687 -0.363018 -0.878593 0.310309 0.170898 0.826904 1 6 1.000000
 47 -1.668691 -2.686436 17.823416 -0.353187 -0.920520 -0.167037 0.170166 0.816528 1 6 1.000000
mnt_body_m.png
 47 -1.635311 -2.691788 17.882687 -0.363018 -0.878593 0.310309 0.170898 0.826904 1 6 1.000000
 47 -1.744463 -2.657482 17.850132 -0.428412 -0.886777 0.173467 0.168579 0.822144 1 6 1.000000
 47 -1.668691 -2.686436 17.823416 -0.353187 -0.920520 -0.167037 0.170166 0.816528 1 6 1.000000
mnt_body_m.png
 47 -1.668691 -2.686436 17.823416 -0.353187 -0.920520 -0.167037 0.170166 0.816528 1 6 1.000000
 47 -1.744463 -2.657482 17.850132 -0.428412 -0.886777 0.173467 0.168579 0.822144 1 6 1.000000
 47 -1.877311 -2.583120 17.801601 -0.453926 -0.827830 -0.329619 0.165283 0.813965 1 6 1.000000
mnt_body_m.png
 47 -1.744463 -2.657482 17.850132 -0.428412 -0.886777 0.173467 0.168579 0.822144 1 6 1.000000
 47 -1.884007 -2.588375 17.835541 -0.495761 -0.859974 0.121104 0.165283 0.820435 1 6 1.000000
 47 -1.877311 -2.583120 17.801601 -0.453926 -0.827830 -0.329619 0.165283 0.813965 1 6 1.000000
mnt_body_m.png
 47 -1.877311 -2.583120 17.801601 -0.453926 -0.827830 -0.329619 0.165283 0.813965 1 6 1.000000
 47 -1.884007 -2.588375 17.835541 -0.495761 -0.859974 0.121104 0.165283 0.820435 1 6 1.000000
 47 -2.075222 -2.454999 17.802046 -0.595665 -0.779852 -0.192393 0.160400 0.816528 1 6 1.000000
mnt_body_m.png
 47 -1.884007 -2.588375 17.835541 -0.495761 -0.859974 0.121104 0.165283 0.820435 1 6 1.000000
 47 -2.016387 -2.502677 17.835838 -0.558127 -0.814426 0.158758 0.161987 0.822266 1 6 1.000000
 47 -2.075222 -2.454999 17.802046 -0.595665 -0.779852 -0.192393 0.160400 0.816528 1 6 1.000000
mnt_body_m.png
 47 -2.075222 -2.454999 17.802046 -0.595665 -0.779852 -0.192393 0.160400 0.816528 1 6 1.000000
 47 -2.016387 -2.502677 17.835838 -0.558127 -0.814426 0.158758 0.161987 0.822266 1 6 1.000000
 47 -2.209638 -2.336864 17.835070 -0.686078 -0.723963 0.071929 0.156860 0.823730 1 6 1.000000
mnt_body_m.png
 47 -2.016387 -2.502677 17.835838 -0.558127 -0.814426 0.158758 0.161987 0.822266 1 6 1.000000
 47 -2.106297 -2.423657 17.857927 -0.595375 -0.751236 0.284910 0.159668 0.827026 1 6 1.000000
 47 -2.209638 -2.336864 17.835070 -0.686078 -0.723963 0.071929 0.156860 0.823730 1 6 1.000000
mnt_body_m.png
 47 -2.209638 -2.336864 17.835070 -0.686078 -0.723963 0.071929 0.156860 0.823730 1 6 1.000000
 47 -2.106297 -2.423657 17.857927 -0.595375 -0.751236 0.284910 0.159668 0.827026 1 6 1.000000
 47 -2.254192 -2.276006 17.880156 -0.658102 -0.591525 0.465832 0.155518 0.833496 1 6 1.000000
mnt_body_m.png
 47 -2.254192 -2.276006 17.880156 -0.658102 -0.591525 0.465832 0.155518 0.833496 1 6 1.000000
 47 -2.106297 -2.423657 17.857927 -0.595375 -0.751236 0.284910 0.159668 0.827026 1 6 1.000000
 47 -2.136098 -2.382951 17.888084 -0.576978 -0.651389 0.492736 0.158813 0.833496 1 6 1.000000
mnt_body_m.png
 47 -2.106297 -2.423657 17.857927 -0.595375 -0.751236 0.284910 0.159668 0.827026 1 6 1.000000
 47 -1.878312 -2.556377 17.891899 -0.426088 -0.691773 0.583009 0.165283 0.833496 1 6 1.000000
 47 -2.136098 -2.382951 17.888084 -0.576978 -0.651389 0.492736 0.158813 0.833496 1 6 1.000000
mnt_body_m.png
 47 -2.136098 -2.382951 17.888084 -0.576978 -0.651389 0.492736 0.158813 0.833496 1 6 1.000000
 47 -1.878312 -2.556377 17.891899 -0.426088 -0.691773 0.583009 0.165283 0.833496 1 6 1.000000
 47 -2.093039 -2.383723 17.922071 -0.397862 -0.508181 0.763844 0.159668 0.839966 1 6 1.000000
mnt_body_m.png
 47 -2.093039 -2.383723 17.922071 -0.397862 -0.508181 0.763844 0.159668 0.839966 1 6 1.000000
 47 -1.878312 -2.556377 17.891899 -0.426088 -0.691773 0.583009 0.165283 0.833496 1 6 1.000000
 47 -1.994580 -2.435503 17.932957 -0.325264 -0.468242 0.821555 0.162109 0.844727 1 6 1.000000
mnt_body_m.png
 47 -1.994580 -2.435503 17.932957 -0.325264 -0.468242 0.821555 0.162109 0.844727 1 6 1.000000
 47 -1.878312 -2.556377 17.891899 -0.426088 -0.691773 0.583009 0.165283 0.833496 1 6 1.000000
 47 -1.858809 -2.510786 17.942778 -0.309164 -0.466960 0.828472 0.165283 0.846436 1 6 1.000000
mnt_body_m.png
 47 -1.858809 -2.510786 17.942778 -0.309164 -0.466960 0.828472 0.165283 0.846436 1 6 1.000000
 47 -1.878312 -2.556377 17.891899 -0.426088 -0.691773 0.583009 0.165283 0.833496 1 6 1.000000
 47 -1.722656 -2.590309 17.947252 -0.301421 -0.480038 0.823838 0.168579 0.844727 1 6 1.000000
mnt_body_m.png
 47 -1.722656 -2.590309 17.947252 -0.301421 -0.480038 0.823838 0.168579 0.844727 1 6 1.000000
 47 -1.878312 -2.556377 17.891899 -0.426088 -0.691773 0.583009 0.165283 0.833496 1 6 1.000000
 47 -1.622053 -2.651854 17.946831 -0.294683 -0.561465 0.773252 0.170898 0.839966 1 6 1.000000
mnt_body_m.png
 47 -1.622053 -2.651854 17.946831 -0.294683 -0.561465 0.773252 0.170898 0.839966 1 6 1.000000
 47 -1.878312 -2.556377 17.891899 -0.426088 -0.691773 0.583009 0.165283 0.833496 1 6 1.000000
 47 -1.592251 -2.692561 17.916674 -0.301395 -0.794255 0.527560 0.171875 0.833374 1 6 1.000000
mnt_body_m.png
 47 -1.592251 -2.692561 17.916674 -0.301395 -0.794255 0.527560 0.171875 0.833374 1 6 1.000000
 47 -1.878312 -2.556377 17.891899 -0.426088 -0.691773 0.583009 0.165283 0.833496 1 6 1.000000
 47 -1.635311 -2.691788 17.882687 -0.363018 -0.878593 0.310309 0.170898 0.826904 1 6 1.000000
mnt_body_m.png
 47 -1.635311 -2.691788 17.882687 -0.363018 -0.878593 0.310309 0.170898 0.826904 1 6 1.000000
 47 -1.878312 -2.556377 17.891899 -0.426088 -0.691773 0.583009 0.165283 0.833496 1 6 1.000000
 47 -1.744463 -2.657482 17.850132 -0.428412 -0.886777 0.173467 0.168579 0.822144 1 6 1.000000
mnt_body_m.png
 47 -1.744463 -2.657482 17.850132 -0.428412 -0.886777 0.173467 0.168579 0.822144 1 6 1.000000
 47 -1.878312 -2.556377 17.891899 -0.426088 -0.691773 0.583009 0.165283 0.833496 1 6 1.000000
 47 -1.884007 -2.588375 17.835541 -0.495761 -0.859974 0.121104 0.165283 0.820435 1 6 1.000000
mnt_body_m.png
 47 -1.884007 -2.588375 17.835541 -0.495761 -0.859974 0.121104 0.165283 0.820435 1 6 1.000000
 47 -1.878312 -2.556377 17.891899 -0.426088 -0.691773 0.583009 0.165283 0.833496 1 6 1.000000
 47 -2.016387 -2.502677 17.835838 -0.558127 -0.814426 0.158758 0.161987 0.822266 1 6 1.000000
mnt_body_m.png
 47 -1.878312 -2.556377 17.891899 -0.426088 -0.691773 0.583009 0.165283 0.833496 1 6 1.000000
 47 -2.106297 -2.423657 17.857927 -0.595375 -0.751236 0.284910 0.159668 0.827026 1 6 1.000000
 47 -2.016387 -2.502677 17.835838 -0.558127 -0.814426 0.158758 0.161987 0.822266 1 6 1.000000
end
